<?xml version="1.0" encoding="utf-8"?>
<!-- Generator: Adobe Illustrator 19.1.0, SVG Export Plug-In . SVG Version: 6.00 Build 0)  -->
<svg version="1.1" id="Ebene_1" xmlns="http://www.w3.org/2000/svg" xmlns:xlink="http://www.w3.org/1999/xlink" x="0px" y="0px"
	 viewBox="0 0 86 86" style="enable-background:new 0 0 86 86;" xml:space="preserve">
<style type="text/css">
	.st0{fill:#D1E8F5;}
</style>
<g>
	<rect x="27.3" y="81.9" class="st0" width="31.3" height="3.1"/>
	<rect x="27.3" y="75.6" class="st0" width="31.3" height="3.1"/>
	
		<rect x="41.4" y="64.7" transform="matrix(-0.1985 -0.9801 0.9801 -0.1985 -27.2429 138.4225)" class="st0" width="3.1" height="31.3"/>
	<rect x="27.3" y="75" class="st0" width="31.3" height="3.1"/>
	<rect x="27.3" y="68.7" class="st0" width="31.3" height="3.1"/>
	
		<rect x="41.4" y="57.8" transform="matrix(-0.1985 -0.9801 0.9801 -0.1985 -20.4812 130.1542)" class="st0" width="3.1" height="31.3"/>
	<rect x="27.3" y="68.1" class="st0" width="31.3" height="3.1"/>
	<rect x="27.3" y="61.8" class="st0" width="31.3" height="3.1"/>
	
		<rect x="41.4" y="50.9" transform="matrix(-0.1985 -0.9801 0.9801 -0.1985 -13.7194 121.8859)" class="st0" width="3.1" height="31.3"/>
	<rect x="27.3" y="61.2" class="st0" width="31.3" height="3.1"/>
	<rect x="27.3" y="54.9" class="st0" width="31.3" height="3.1"/>
	
		<rect x="41.4" y="44" transform="matrix(-0.1984 -0.9801 0.9801 -0.1984 -6.9564 113.6064)" class="st0" width="3.1" height="31.3"/>
	<path class="st0" d="M43,6c1.5,0,2.7-1.1,2.7-2.7c0-1.5-1.1-2.6-2.6-2.6c-1.5,0-2.6,1.1-2.7,2.6C40.3,4.7,41.5,6,43,6z"/>
	<path class="st0" d="M53.5,23.7c-2-2.6-4-5.1-5.9-7.7c-0.5-0.7-0.9-1.9-0.9-2.8c0-0.2,0-0.4,0-0.7c0-0.2,0-0.4,0-0.6
		c0-0.8,0.4-1.8,0.9-2.4c1.9-2.3,3.9-4.5,5.9-6.7c0.6-0.7,1-1.5,0.2-2c0,0,0,0,0,0c0,0,0,0,0,0c0,0,0,0,0,0
		c-0.3-0.2-1.1-0.1-1.6,0.2c-0.1,0-0.3,0.1-0.4,0.2c-0.9,0.6-1.7,1.4-2.3,2.3c-0.2,0.3-0.5,0.7-0.7,1c-0.4,0.4-0.9,0.9-1.3,1.3
		c-0.1,0.1-0.2,0.2-0.3,0.2c0,0-0.1,0-0.1,0.1c-0.1,0.1-0.2,0.2-0.4,0.2c-0.6,0.3-1.4,0.6-2.1,0.7C44,7,43.5,7.1,43,7.1
		c-0.5,0-1-0.1-1.5-0.2c-0.7-0.1-1.4-0.4-2.1-0.7c-0.1-0.1-0.2-0.1-0.4-0.2c0,0-0.1,0-0.1-0.1c-0.1-0.1-0.2-0.2-0.3-0.2
		c-0.5-0.4-0.9-0.8-1.3-1.3c-0.3-0.3-0.5-0.6-0.7-1c-0.6-0.9-1.4-1.7-2.3-2.3C34.2,1,34.1,1,33.9,0.9c-0.5-0.3-1.3-0.4-1.6-0.2
		c0,0,0,0,0,0c0,0,0,0,0,0c0,0,0,0,0,0c-0.8,0.6-0.4,1.4,0.2,2c2,2.2,4,4.4,5.9,6.7c0.5,0.6,0.9,1.6,0.9,2.4c0,0.2,0,0.4,0,0.6
		c0,0.2,0,0.4,0,0.7c0,1-0.4,2.1-0.9,2.8c-1.9,2.7-3.9,5.2-5.9,7.7c-0.6,0.8-1,1.7-0.2,2.4c0,0,0,0,0,0c0,0,0,0,0,0c0,0,0,0,0,0
		c0.3,0.2,1.1,0.1,1.6-0.2c0.1,0,0.3-0.1,0.4-0.2c0.9-0.7,1.7-1.6,2.3-2.6c0.2-0.4,0.5-0.8,0.7-1.1c0.4-0.5,0.9-1,1.3-1.5
		c0.1-0.1,0.2-0.2,0.3-0.3c0,0,0.1-0.1,0.1-0.1c0.1-0.1,0.2-0.2,0.4-0.3c0.6-0.4,1.4-0.7,2.1-0.8c0.5-0.1,1-0.2,1.5-0.2
		c0.5,0,1,0.1,1.5,0.2c0.7,0.2,1.4,0.4,2.1,0.8c0.1,0.1,0.2,0.2,0.4,0.3c0,0,0.1,0.1,0.1,0.1c0.1,0.1,0.2,0.2,0.3,0.3
		c0.5,0.5,0.9,1,1.3,1.5c0.3,0.3,0.5,0.7,0.7,1.1c0.6,1,1.4,1.9,2.3,2.6c0.1,0.1,0.2,0.1,0.4,0.2c0.5,0.3,1.3,0.5,1.6,0.2
		c0,0,0,0,0,0c0,0,0,0,0,0c0,0,0,0,0,0C54.5,25.4,54.1,24.5,53.5,23.7z"/>
	<rect x="33.8" y="32.1" class="st0" width="0.9" height="18.8"/>
	<rect x="38.2" y="28.9" class="st0" width="0.9" height="18.8"/>
	<rect x="42.5" y="32.1" class="st0" width="0.9" height="18.8"/>
	<rect x="46.9" y="28.9" class="st0" width="0.9" height="18.8"/>
	<rect x="51.2" y="32.1" class="st0" width="0.9" height="18.8"/>
</g>
</svg>
