<svg xmlns="http://www.w3.org/2000/svg" xmlns:xlink="http://www.w3.org/1999/xlink" version="1.1" x="0px" y="0px" viewBox="0 0 100 85" enable-background="new 0 0 100 85" xml:space="preserve" width="100" height="85"><path d="M61.6 56.8c-2.6-0.5-5.3-1.1-7.9-1.6c-1.9-0.4-3.9-0.8-5.7-1.6c-1.6-0.7-3.2-1.7-5-1.8c-1.9-0.1-3.7 1-5.4 1.9 c-4.2 2.3-8.8 4-13.6 4.9c-0.5 0.1-1.1 0.2-1.5 0c-0.5-0.2-0.8-0.8-1-1.4c-0.5-1.3-0.9-2.7-1.1-4c-1.1-0.5-2.5 0.4-3.5-0.2 c-0.4-0.2-0.6-0.6-0.9-1c-1.2-1.9-2.3-3.7-3.5-5.6c-0.2-0.3-0.4-0.7-0.5-1.1c-0.1-1 0.7-1.8 1.6-2.4c3.8-2.7 8.1-4.4 12.4-6.1 c8.6-3.4 17.2-6.8 26-9.6c6.9-2.2 14.2-4.1 21.3-2.8c2 0.4 4.2 1.2 5.1 3.1c1 2.2-0.2 4.6-1.3 6.7c-1.1 2.1-2.3 4.6-1.3 6.7 c1-0.1 1.9 0.7 2 1.7c0.1 1-0.8 1.9-1.7 1.9c0.7 1 1.8 1.5 2.8 2.1c2.2 1.1 4.4 2.2 6.6 3.3c0.8 0.4 1.6 0.9 1.8 1.7 c0.4 1.5-1.4 2.5-2.8 2.9c-2.5 0.7-5.1 1.4-7.7 2c-2.6 0.6-5.3 1.2-8 1.2C66.3 57.7 64 57.2 61.6 56.8z"/></svg>
