<?xml version="1.0" encoding="utf-8"?>
<!-- Generator: Adobe Illustrator 19.1.0, SVG Export Plug-In . SVG Version: 6.00 Build 0)  -->
<svg version="1.1" id="Ebene_1" xmlns="http://www.w3.org/2000/svg" xmlns:xlink="http://www.w3.org/1999/xlink" x="0px" y="0px"
	 viewBox="0 0 86 86" style="enable-background:new 0 0 86 86;" xml:space="preserve">
<style type="text/css">
	.st0{fill:#D1E8F5;}
</style>
<g>
	<path class="st0" d="M65.5,54.3c0,5.6-4.5,10.1-10.1,10.1s-10.1-4.5-10.1-10.1c0-5.6,4.5-10.1,10.1-10.1S65.5,48.8,65.5,54.3"/>
	<path class="st0" d="M40.6,54.3c0,5.6-4.5,10.1-10.1,10.1s-10.1-4.5-10.1-10.1c0-5.6,4.5-10.1,10.1-10.1S40.6,48.8,40.6,54.3"/>
	<path class="st0" d="M53.1,75.9C53.1,81.5,48.6,86,43,86s-10.1-4.5-10.1-10.1S37.4,65.9,43,65.9S53.1,70.4,53.1,75.9"/>
	<path class="st0" d="M53.1,32.6c0,5.6-4.5,10.1-10.1,10.1s-10.1-4.5-10.1-10.1S37.4,22.5,43,22.5S53.1,27,53.1,32.6"/>
	<path class="st0" d="M28,32.6c0,5.6-4.5,10.1-10.1,10.1S7.9,38.1,7.9,32.6s4.5-10.1,10.1-10.1S28,27,28,32.6"/>
	<path class="st0" d="M78.1,32.6c0,5.6-4.5,10.1-10.1,10.1S58,38.1,58,32.6s4.5-10.1,10.1-10.1S78.1,27,78.1,32.6"/>
	<line class="st0" x1="31.7" y1="1.8" x2="66.8" y2="1.8"/>
	<path class="st0" d="M66.8,3.7H31.7c-1.1,0-1.8-0.7-1.8-1.8c0-1.1,0.7-1.8,1.8-1.8h35.1c1.1,0,1.8,0.7,1.8,1.8
		C68.6,2.9,67.7,3.7,66.8,3.7z"/>
	<path class="st0" d="M43,24.7c-0.9,0-1.6-0.5-1.8-1.5C41,22.5,38.4,4.9,50.9,0.2c0.9-0.4,2,0.2,2.4,1.1c0.4,0.9-0.2,2-1.1,2.4
		c-9.7,3.7-7.3,18.8-7.3,19c0.2,0.9-0.5,2-1.5,2C43.2,24.7,43.2,24.7,43,24.7z"/>
</g>
</svg>
