<?xml version="1.0" encoding="utf-8"?>
<!-- Generator: Adobe Illustrator 19.1.0, SVG Export Plug-In . SVG Version: 6.00 Build 0)  -->
<svg version="1.1" id="Ebene_1" xmlns="http://www.w3.org/2000/svg" xmlns:xlink="http://www.w3.org/1999/xlink" x="0px" y="0px"
	 viewBox="0 0 86 86" style="enable-background:new 0 0 86 86;" xml:space="preserve">
<style type="text/css">
	.st0{fill-rule:evenodd;clip-rule:evenodd;fill:#D1E8F5;}
	.st1{fill:#D1E8F5;}
</style>
<g>
	<path class="st0" d="M32.8,33.1C32.8,38.7,36.4,47,43,47c6.5,0,10.1-8.3,10.1-13.9S48.6,22.9,43,22.9
		C37.4,22.9,32.8,27.4,32.8,33.1 M59.9,57.2c-1.9-3-4.3-5-7.7-6.1c0,0-2.5-1.3-9.2-1.3s-9.2,1.3-9.2,1.3c-3.4,1.1-5.7,3.1-7.7,6.1
		c-0.8,1.2-1.2,3.6-1.2,4.9c0,0.3,0,0.7,0,1.1v2.2v-1.5c0,2.4,1.7,4.4,3.7,4.4h28.8c2.1,0,3.7-2,3.7-4.4v1.5v-2.2c0-0.4,0-0.8,0-1.1
		C61.1,60.8,60.6,58.4,59.9,57.2"/>
	<path class="st1" d="M31.8,48.5c-1.6-2.1-3.6-3.5-6.2-4.4c0,0-2.4-1.2-8.6-1.2c-6.2,0-8.6,1.2-8.6,1.2c-3.2,1-5.4,2.9-7.2,5.7
		C0.5,51,0.1,53.2,0,54.4c0,0.3,0,0.7,0,1v0.6c0,2.3,1.6,4.1,3.5,4.1h17.4c0.2-1.4,0.7-3,1.3-4C24.6,52.4,27.6,50,31.8,48.5z"/>
	<path class="st1" d="M17,40.3c6.1,0,9.5-7.8,9.5-13s-4.2-9.6-9.5-9.6c-5.2,0-9.5,4.3-9.5,9.6S10.8,40.3,17,40.3z"/>
	<path class="st1" d="M54.2,48.5c1.6-2.1,3.6-3.5,6.2-4.4c0,0,2.4-1.2,8.6-1.2c6.2,0,8.6,1.2,8.6,1.2c3.2,1,5.4,2.9,7.2,5.7
		c0.7,1.1,1.1,3.3,1.1,4.5c0,0.3,0,0.7,0,1v0.6c0,2.3-1.6,4.1-3.5,4.1H65.1c-0.2-1.4-0.7-3-1.3-4C61.4,52.4,58.4,50,54.2,48.5z"/>
	<path class="st1" d="M69,40.3c-6.1,0-9.5-7.8-9.5-13s4.2-9.6,9.5-9.6c5.2,0,9.5,4.3,9.5,9.6S75.2,40.3,69,40.3z"/>
</g>
</svg>
