<svg xmlns="http://www.w3.org/2000/svg" xmlns:xlink="http://www.w3.org/1999/xlink" version="1.1" x="0px" y="0px" viewBox="0 0 279 258" enable-background="new 0 0 279 258" xml:space="preserve" width="279" height="258"><style>.style0{fill:	#C0C0C0;}</style><path d="M77.3 255.4h102.9V2.6H77.3V255.4z M165 219.9h-27.5v-27.5H165V219.9z M113.8 178.7v-27.5h27.5v27.5H113.8z M165 137.5h-27.5V110H165V137.5z M113.8 96.4V68.8h27.5v27.5H113.8z M137.5 27.7H165v27.5h-27.5V27.7z M90.2 27.7h27.5v27.5H90.2 V27.7z M90.2 110h27.5v27.5H90.2V110z M90.2 192.4h27.5v27.5H90.2V192.4z M1.1 255.4h61.7V82.5H1.1V255.4z M18.2 96.1h27.5v27.5 H18.2V96.1z M18.2 145h27.5v27.5H18.2V145z M18.2 192h27.5v27.5H18.2V192z M265.7 106.9V74h-15V42H240V12.2h-9V42h-10.7v32h-15v32.9 h-12.2v148.5h84.8V106.9H265.7z M234.6 236.5h-27.5V209h27.5V236.5z M234.6 152.2h-27.5v-27.5h27.5V152.2z M266.9 194h-27.5v-27.5 h27.5V194z" class="style0"/></svg>
