<svg xmlns="http://www.w3.org/2000/svg" xmlns:xlink="http://www.w3.org/1999/xlink" version="1.1" x="0px" y="0px" viewBox="0 0 100 85" enable-background="new 0 0 100 85" xml:space="preserve" width="100" height="85"><rect x="71.9" y="40.1" width="7.5" height="4.2"/><rect x="50.8" y="60.1" width="4.2" height="7.5"/><rect x="64.5" y="24.8" transform="matrix(-0.7071 0.7071 -0.7071 -0.7071 135.5341 -2.2939)" width="7.5" height="4.2"/><rect x="64.5" y="55.5" transform="matrix(-0.7071 -0.7071 0.7071 -0.7071 75.7982 146.5128)" width="7.5" height="4.2"/><path d="M40.9 53.6l10-10V23.5h6.4v22.7c-0.4 0.4-11.8 12-11.8 12L40.9 53.6z"/><path d="M54.5 8.1v6c15.6 0 28.2 12.7 28.2 28.2c0 15.6-12.7 28.2-28.2 28.2c-14.3 0-26.1-10.7-28-24.4l4.3 4.2l4.3-4.3L23.4 34.4 L11.6 46.1l4.3 4.3l4.6-4.6c1.7 17.3 16.3 30.9 34.1 30.9c18.9 0 34.2-15.4 34.2-34.2C88.8 23.5 73.4 8.1 54.5 8.1z"/></svg>
