<?xml version="1.0" encoding="UTF-8" standalone="no"?>
<svg xmlns:sketch="http://www.bohemiancoding.com/sketch/ns" xmlns="http://www.w3.org/2000/svg" height="15px" width="13px" version="1.1" xmlns:xlink="http://www.w3.org/1999/xlink" viewBox="0 0 13 15"><!-- Generator: Sketch 3.4.2 (15857) - http://www.bohemiancoding.com/sketch -->
 <title>Fill 1</title>
 <desc>Created with Sketch.</desc>
 <g id="Page-1" fill-rule="evenodd" sketch:type="MSPage" fill="none">
  <g id="Desktop-HD" transform="translate(-1268 -592)" fill="#1F1F1F" sketch:type="MSArtboardGroup">
   <g id="Rides_Liste-+-Rectangle-3-+-driver-rating-+-car-rating" transform="translate(0 236)" sketch:type="MSLayerGroup">
    <g id="driver-rating-+-car-rating" sketch:type="MSShapeGroup" transform="translate(1268 353)">
     <g id="driver-rating" transform="translate(.083984 .42188)">
      <path id="Fill-1" d="m1.7764e-15 16.836v-3.242l3.5312-1.313 1.7497 3.469 0.3863-1.711c-0.3124-0.165-0.5286-0.489-0.5286-0.867 0-0.544 0.4388-0.984 0.9825-0.984 0.5436 0 0.9805 0.44 0.9805 0.984 0 0.359-0.2024 0.67-0.4898 0.842l0.3726 1.736 1.6406-3.469 3.375 1.313v3.242h-12zm3.1168-6.693l1.9928 1.669h1.8823l1.7499-1.669v-1.0628c0.375 0 0.6154-0.4096 0.6094-1.4291 0.0041-0.5782 0.0529-0.7417-0.1562-0.7417 0-2.0001 0.2198-3.9094-3.1406-3.9094-3.3696 0-3.1673 1.9093-3.1673 3.9094-0.209 0-0.266 0.1635-0.2619 0.7417-0.006 1.0195 0.1166 1.4291 0.4916 1.4291v1.0628z"/>
     </g>
    </g>
   </g>
  </g>
 </g>
</svg>
