<svg xmlns="http://www.w3.org/2000/svg" xmlns:xlink="http://www.w3.org/1999/xlink" version="1.1" x="0px" y="0px" width="322px" height="303px" viewBox="0 0 322 303" enable-background="new 0 0 322 303" xml:space="preserve"><style>.style0{fill:	#C0C0C0;}</style><path d="M77.9 257.2l77-34.9L264 113.3L244.8 94l-65.7 65.7l-11.5-11.5l65.7-65.7l-11.8-11.8L112.4 179.9L77.9 257.2 z M132.3 184.1l16.9-16.9l2.4 16.2l16 2.2l-16.9 16.9l-33.5 15.2L132.3 184.1z M319.4 57.9l-42.5-42.5l-36.1 36.2L283.2 94 L319.4 57.9z M234.1 186.8h60.2v84.6H24.7v-84.6h64.4v-22.3H2.4v129.1h314.1V164.5h-82.4V186.8z" class="style0"/></svg>