<?xml version="1.0" encoding="utf-8"?>
<!-- Generator: Adobe Illustrator 19.1.0, SVG Export Plug-In . SVG Version: 6.00 Build 0)  -->
<svg version="1.1" id="Ebene_1" xmlns="http://www.w3.org/2000/svg" xmlns:xlink="http://www.w3.org/1999/xlink" x="0px" y="0px"
	 viewBox="0 0 86 86" style="enable-background:new 0 0 86 86;" xml:space="preserve">
<style type="text/css">
	.st0{fill-rule:evenodd;clip-rule:evenodd;fill:#D1E8F5;}
</style>
<path class="st0" d="M6.5,3.4c3.6,0,6.5,3.2,6.5,7.3c0,4-2.9,7.3-6.5,7.3C2.9,18,0,14.8,0,10.7C0,6.7,2.9,3.4,6.5,3.4z"/>
<path class="st0" d="M2.3,54.7v22.7c0,1.8,1.5,3.2,3.2,3.2h2c1.8,0,3.2-1.5,3.2-3.2V54.7H13V32.1l4,4c0.8,0.8,1.9,1,2.9,0.9h0.2
	c0.3,0,0.6-0.2,0.9-0.3l11.2-6.5c1.5-0.9,2.1-2.9,1.2-4.4c-0.9-1.5-2.9-2.1-4.4-1.2l-9.1,5.2l-8-7.9c-1.4-1.4-3.1-2.7-5.2-2.7
	C3,19.2,0,22.1,0,25.7v29.1L2.3,54.7L2.3,54.7z"/>
<path class="st0" d="M51.6,36l11.6-3.1l5.6-5.6l0-0.3c-0.5-3.5,2-6.8,5.5-7.3c3.5-0.5,6.8,2,7.3,5.5l4.1,28.8l-2.2,0.3v23.2
	c0,1.8-1.5,3.2-3.2,3.2h-2c-1.8,0-3.2-1.5-3.2-3.2V55.5L73,55.8l-3-20.5l-2.5,2.5c-0.4,0.5-1,0.9-1.7,1.1l-12.5,3.3
	c-1.7,0.5-3.5-0.6-4-2.3C48.9,38.2,49.9,36.5,51.6,36L51.6,36z"/>
<path class="st0" d="M70.2,4.3c-3.6,0-6.5,3.2-6.5,7.3c0,4,2.9,7.3,6.5,7.3c3.6,0,6.5-3.2,6.5-7.3C76.7,7.6,73.7,4.3,70.2,4.3z"/>
<path class="st0" d="M36.3,59h13c2.4,0,4.3,2.4,4.3,4.3v13c0,2.4-1.9,4.3-4.3,4.3h-13c-2.4,0-4.3-2.4-4.3-4.3v-13
	C32.1,61,34,59,36.3,59z"/>
<path class="st0" d="M36.3,35.3h12.9c0.3,0,0.6,0,1,0.1c-1.6,1-2.4,2.9-1.9,4.8c0.6,2.3,3,3.7,5.3,3.1v9.3c0,2.4-2,4.3-4.3,4.3H36.4
	c-2.4,0-4.3-2-4.3-4.3V39.6C32.1,37.2,34.1,35.3,36.3,35.3L36.3,35.3z"/>
<path class="st0" d="M21.3,16.7l11.1-6.6c2.1-1.2,4.7-0.5,5.9,1.5L45,22.8c1.2,2.1,0.5,4.7-1.5,5.9l-11.1,6.6
	c-1.9,1.1-4.1,0.6-5.5-1l5.8-3.3c2.1-1.2,2.8-3.9,1.6-5.9c-1.2-2.1-3.9-2.8-5.9-1.6L22.4,27l-2.5-4.3C18.7,20.6,19.3,17.9,21.3,16.7
	L21.3,16.7z"/>
</svg>
