<?xml version="1.0" encoding="UTF-8" standalone="no"?>
<svg width="368px" height="24px" viewBox="0 0 368 24" version="1.1" xmlns="http://www.w3.org/2000/svg" xmlns:xlink="http://www.w3.org/1999/xlink">
    <!-- Generator: Sketch 40.1 (33804) - http://www.bohemiancoding.com/sketch -->
    <title>blacklane_business_logo@1x</title>
    <desc>Created with Sketch.</desc>
    <defs>
        <polygon id="path-1" points="1.62630326e-20 0.39776 1.62630326e-20 23.60256 19.72352 23.60256 19.72352 0.39776 0 0.39776"></polygon>
        <polygon id="path-3" points="0.11012 24 21.52492 24 21.52492 0.00012 0.11012 0.00012"></polygon>
        <polygon id="path-5" points="0 24 367.6912 24 367.6912 0 0 0"></polygon>
    </defs>
    <g id="Page-1" stroke="none" stroke-width="1" fill="none" fill-rule="evenodd">
        <g id="blacklane-for-business-logo" transform="translate(-135.000000, -39.000000)">
            <g id="Group-4">
                <g id="blacklane_business_logo" transform="translate(135.000000, 39.000000)">
                    <g id="Group-3">
                        <mask id="mask-2" fill="white">
                            <use xlink:href="#path-1"></use>
                        </mask>
                        <g id="Clip-2"></g>
                        <path d="M10.87272,14.02216 L4.97232,14.02216 L4.97232,19.12736 L11.03872,19.12736 C13.29272,19.12736 14.65192,18.33176 14.65192,16.60776 L14.65192,16.54176 C14.65192,14.98336 13.49192,14.02216 10.87272,14.02216 L10.87272,14.02216 Z M13.35912,7.25976 C13.35912,5.73456 12.16592,4.87296 10.01112,4.87296 L4.97232,4.87296 L4.97232,9.77896 L9.67952,9.77896 C11.93352,9.77896 13.35912,9.04976 13.35912,7.32576 L13.35912,7.25976 Z M-7.99999998e-05,0.39776 L10.77352,0.39776 C13.42552,0.39776 15.51392,1.12696 16.83992,2.45296 C17.90032,3.51376 18.43072,4.80656 18.43072,6.39776 L18.43072,6.46416 C18.43072,9.08296 17.03872,10.54136 15.38112,11.46976 C18.06632,12.49736 19.72352,14.05536 19.72352,17.17136 L19.72352,17.23776 C19.72352,21.48096 16.27632,23.60216 11.03872,23.60256 L-7.99999998e-05,23.60256 L-7.99999998e-05,0.39776 Z" id="Fill-1" fill="#FFFFFF" mask="url(#mask-2)"></path>
                    </g>
                    <polygon id="Fill-4" fill="#FFFFFF" points="23.0388 0.39796 28.1436 0.39796 28.1436 18.96156 39.7128 18.96156 39.7128 23.60236 23.0388 23.60236"></polygon>
                    <path d="M58.3838,13.88968 L55.301,6.36448 L52.2178,13.88968 L58.3838,13.88968 Z M53.0138,0.23208 L57.721,0.23208 L67.6658,23.60248 L62.3286,23.60248 L60.207,18.39808 L50.3946,18.39808 L48.2734,23.60248 L43.069,23.60248 L53.0138,0.23208 Z" id="Fill-6" fill="#FFFFFF"></path>
                    <g id="Group-10" transform="translate(68.000000, 0.000000)">
                        <mask id="mask-4" fill="white">
                            <use xlink:href="#path-3"></use>
                        </mask>
                        <g id="Clip-9"></g>
                        <path d="M0.11012,12.06652 L0.11012,12.00012 C0.11012,5.40332 5.08292,0.00012 12.20972,0.00012 C16.58532,0.00012 19.20412,1.45852 21.35892,3.58012 L18.11012,7.32572 C16.32012,5.70172 14.49692,4.70732 12.17652,4.70732 C8.26492,4.70732 5.44732,7.95572 5.44732,11.93372 L5.44732,12.00012 C5.44732,15.97812 8.19852,19.29292 12.17652,19.29292 C14.82852,19.29292 16.45292,18.23212 18.27612,16.57452 L21.52492,19.85652 C19.13812,22.40892 16.48612,24.00012 12.01092,24.00012 C5.18212,24.00012 0.11012,18.72932 0.11012,12.06652" id="Fill-8" fill="#FFFFFF" mask="url(#mask-4)"></path>
                    </g>
                    <polygon id="Fill-11" fill="#FFFFFF" points="93.21748 0.39792 98.32268 0.39792 98.32268 10.54152 107.73708 0.39792 113.90268 0.39792 104.45508 10.24312 114.33348 23.60232 108.20108 23.60232 101.00788 13.72392 98.32268 16.50832 98.32268 23.60232 93.21748 23.60232"></polygon>
                    <polygon id="Fill-13" fill="#FFFFFF" points="117.2346 0.39792 121.3122 0.39792 121.3122 19.88952 133.5114 19.88952 133.5114 23.60232 117.2346 23.60232"></polygon>
                    <path d="M152.44852,14.38684 L148.43732,5.10484 L144.45932,14.38684 L152.44852,14.38684 Z M146.61412,0.23204 L150.39332,0.23204 L160.60292,23.60244 L156.29412,23.60244 L153.94012,18.00004 L142.96772,18.00004 L140.58092,23.60244 L136.40412,23.60244 L146.61412,0.23204 Z" id="Fill-15" fill="#FFFFFF"></path>
                    <polygon id="Fill-17" fill="#FFFFFF" points="163.63808 0.39788 167.41728 0.39788 179.84848 16.44188 179.84848 0.39788 183.85928 0.39788 183.85928 23.60228 180.44528 23.60228 167.64928 7.09388 167.64928 23.60228 163.63808 23.60228"></polygon>
                    <polygon id="Fill-19" fill="#FFFFFF" points="188.1918 0.39788 205.3966 0.39788 205.3966 4.04428 192.2694 4.04428 192.2694 10.07748 203.905 10.07748 203.905 13.72388 192.2694 13.72388 192.2694 19.95588 205.5626 19.95588 205.5626 23.60228 188.1918 23.60228"></polygon>
                    <path d="M224.09716,13.61432 L217.60636,13.61432 L217.60636,20.00552 L224.39676,20.00552 C227.19316,20.00552 228.89076,18.90712 228.89076,16.80992 L228.89076,16.74352 C228.89076,14.77952 227.32636,13.61432 224.09716,13.61432 L224.09716,13.61432 Z M227.59236,6.92352 C227.59236,5.09272 226.12756,3.96112 223.49796,3.96112 L217.60636,3.96112 L217.60636,10.15272 L223.19876,10.15272 C225.82836,10.15272 227.59236,9.12072 227.59236,6.99032 L227.59236,6.92352 Z M213.57836,0.33272 L224.03076,0.33272 C226.69396,0.33272 228.79116,1.06512 230.12236,2.39672 C231.15436,3.42872 231.68676,4.69352 231.68676,6.25792 L231.68676,6.32472 C231.68676,9.12072 230.08876,10.61872 228.35796,11.51712 C231.08796,12.44952 232.98516,14.01352 232.98516,17.17632 L232.98516,17.24272 C232.98516,21.40352 229.55636,23.63392 224.36356,23.63392 L213.57836,23.63392 L213.57836,0.33272 Z" id="Fill-21" fill="#666666"></path>
                    <path d="M235.38516,13.74744 L235.38516,0.33264 L239.47956,0.33264 L239.47956,13.58104 C239.47956,17.90824 241.70956,20.20504 245.37156,20.20504 C248.99996,20.20504 251.22996,18.04144 251.22996,13.74744 L251.22996,0.33264 L255.32436,0.33264 L255.32436,13.54784 C255.32436,20.50504 251.39636,23.99984 245.30476,23.99984 C239.24676,23.99984 235.38516,20.50504 235.38516,13.74744" id="Fill-23" fill="#666666"></path>
                    <path d="M257.72448,20.23844 L260.18768,17.30924 C262.41808,19.24004 264.68128,20.33844 267.54408,20.33844 C270.07368,20.33844 271.67168,19.14004 271.67168,17.40924 L271.67168,17.34244 C271.67168,15.67804 270.73968,14.77964 266.41248,13.78084 C261.45248,12.58244 258.65648,11.11804 258.65648,6.82364 L258.65648,6.75724 C258.65648,2.76284 261.98528,4e-05 266.61208,4e-05 C270.00728,4e-05 272.70368,1.03164 275.06728,2.92924 L272.87008,6.02524 C270.77288,4.46044 268.67608,3.62844 266.54568,3.62844 C264.14888,3.62844 262.75088,4.85964 262.75088,6.39124 L262.75088,6.45764 C262.75088,8.25524 263.81608,9.05404 268.30968,10.11924 C273.23608,11.31764 275.76608,13.08164 275.76608,16.94324 L275.76608,17.00964 C275.76608,21.37044 272.33768,23.96684 267.44408,23.96684 C263.88248,23.96684 260.52048,22.73524 257.72448,20.23844" id="Fill-25" fill="#666666"></path>
                    <mask id="mask-6" fill="white">
                        <use xlink:href="#path-5"></use>
                    </mask>
                    <g id="Clip-28"></g>
                    <polygon id="Fill-27" fill="#666666" mask="url(#mask-6)" points="278.966 23.634 283.06 23.634 283.06 0.3328 278.966 0.3328"></polygon>
                    <polygon id="Fill-29" fill="#666666" mask="url(#mask-6)" points="286.65996 0.3328 290.45476 0.3328 302.93756 16.444 302.93756 0.3328 306.96516 0.3328 306.96516 23.634 303.53676 23.634 290.68756 7.0568 290.68756 23.634 286.65996 23.634"></polygon>
                    <polygon id="Fill-30" fill="#666666" mask="url(#mask-6)" points="310.16536 0.3328 327.44176 0.3328 327.44176 3.9944 314.25976 3.9944 314.25976 10.0528 325.94376 10.0528 325.94376 13.714 314.25976 13.714 314.25976 19.972 327.60816 19.972 327.60816 23.634 310.16536 23.634"></polygon>
                    <path d="M329.60816,20.23844 L332.07136,17.30924 C334.30176,19.24004 336.56496,20.33844 339.42776,20.33844 C341.95736,20.33844 343.55536,19.14004 343.55536,17.40924 L343.55536,17.34244 C343.55536,15.67804 342.62336,14.77964 338.29616,13.78084 C333.33616,12.58244 330.54016,11.11804 330.54016,6.82364 L330.54016,6.75724 C330.54016,2.76284 333.86896,4e-05 338.49576,4e-05 C341.89096,4e-05 344.58736,1.03164 346.95096,2.92924 L344.75376,6.02524 C342.65656,4.46044 340.55976,3.62844 338.42936,3.62844 C336.03256,3.62844 334.63456,4.85964 334.63456,6.39124 L334.63456,6.45764 C334.63456,8.25524 335.69976,9.05404 340.19336,10.11924 C345.11976,11.31764 347.64976,13.08164 347.64976,16.94324 L347.64976,17.00964 C347.64976,21.37044 344.22136,23.96684 339.32776,23.96684 C335.76616,23.96684 332.40416,22.73524 329.60816,20.23844" id="Fill-31" fill="#666666" mask="url(#mask-6)"></path>
                    <path d="M349.64968,20.23844 L352.11288,17.30924 C354.34328,19.24004 356.60648,20.33844 359.46928,20.33844 C361.99888,20.33844 363.59688,19.14004 363.59688,17.40924 L363.59688,17.34244 C363.59688,15.67804 362.66488,14.77964 358.33768,13.78084 C353.37768,12.58244 350.58168,11.11804 350.58168,6.82364 L350.58168,6.75724 C350.58168,2.76284 353.91048,4e-05 358.53728,4e-05 C361.93248,4e-05 364.62888,1.03164 366.99248,2.92924 L364.79528,6.02524 C362.69808,4.46044 360.60128,3.62844 358.47088,3.62844 C356.07408,3.62844 354.67608,4.85964 354.67608,6.39124 L354.67608,6.45764 C354.67608,8.25524 355.74128,9.05404 360.23488,10.11924 C365.16128,11.31764 367.69128,13.08164 367.69128,16.94324 L367.69128,17.00964 C367.69128,21.37044 364.26288,23.96684 359.36928,23.96684 C355.80768,23.96684 352.44568,22.73524 349.64968,20.23844" id="Fill-32" fill="#666666" mask="url(#mask-6)"></path>
                </g>
            </g>
        </g>
    </g>
</svg>