<svg xmlns="http://www.w3.org/2000/svg" xmlns:xlink="http://www.w3.org/1999/xlink" version="1.1" x="0px" y="0px" viewBox="0 0 306 246" enable-background="new 0 0 306 246" xml:space="preserve" width="306" height="246"><style>.style0{fill:	#C0C0C0;}</style><g><path d="M260.9 60c-0.6 0-15.1-1.3-27.9-14c-11.7-11.7-17.7-11.9-17.8-11.9h-76.8L94.1 72.8 c3.9 2.3 9.6 4.7 16.2 4.7c5.8 0 11.7-1.9 17.3-5.6c13.4-8.9 24-14.4 35.5-14.4c12.1 0 23.9 6 39.5 20c28 25.2 58.6 55.4 58.9 55.7 l1.8 1.8v34.3h42.7V60L260.9 60z" class="style0"/><path d="M97.7 175.8c-2.4-2.4-5.7-3.8-9.1-3.8c-3.4 0-6.7 1.3-9.1 3.8l-3.4 3.4l18.2 18.2l3.4-3.4 C102.7 188.9 102.7 180.8 97.7 175.8z" class="style0"/><path d="M122.1 200.1c-2.4-2.4-5.7-3.8-9.1-3.8c-3.4 0-6.7 1.3-9.1 3.8c0 0 0 0 0 0l-3.4 3.4l18.2 18.2l3.4-3.4 C127.1 213.3 127.1 205.2 122.1 200.1z" class="style0"/><path d="M137.3 220.7c-3.4 0-6.7 1.3-9.1 3.8l-3.4 3.4l18.2 18.2l3.4-3.4c5-5 5-13.2 0-18.2 C144 222.1 140.8 220.7 137.3 220.7z" class="style0"/><path d="M73.3 151.4c-2.4-2.4-5.7-3.8-9.1-3.8c-3.4 0-6.7 1.3-9.1 3.8l-3.4 3.4L69.9 173l3.4-3.4 C78.4 164.6 78.4 156.4 73.3 151.4z" class="style0"/><path d="M194.1 86.3L194.1 86.3c-12.8-11.5-22.4-16.6-31-16.6c-8.5 0-17.3 4.7-28.7 12.4 c-7.7 5.1-15.8 7.7-24.1 7.7c-17.6 0-29.7-11.7-30.3-12.2L75.2 73l58.5-51.1h70.5c9.3-8.3 7.7-22 7.7-22s-35.4 0-70.3 0 c-34.9 0-36 5.8-60.4 30.2C59.7 51.6 38.8 52.3 38.8 52.3H0.1v103.8h38L49 145.2c4.1-4.1 9.5-6.3 15.3-6.3c5.8 0 11.2 2.2 15.3 6.3 c5 5 7 11.8 6.1 18.3c1-0.1 2-0.2 3-0.2c5.8 0 11.2 2.2 15.3 6.3c5 5 7 11.8 6.1 18.3c1-0.1 2-0.2 3-0.2c5.8 0 11.2 2.2 15.3 6.3 c5 5 7 11.8 6.1 18.3c1-0.1 2-0.2 3-0.2c5.8 0 11.2 2.2 15.3 6.3c2.7 2.7 4.5 6 5.5 9.5c4.3 3.3 10.6 3 14.6-1 c4.3-4.3 4.3-11.4 0-15.7L121 159.4l8.7-8.7l51.7 51.7c4.3 4.3 11.4 4.3 15.7 0c2.1-2.1 3.2-4.9 3.2-7.8c0-3-1.2-5.7-3.2-7.8 l-51.7-51.7l8.7-8.7l51.7 51.7c4.3 4.3 11.4 4.3 15.7 0c4.3-4.3 4.3-11.4 0-15.7l-51.7-51.7l8.7-8.7l51.7 51.7 c4.3 4.3 11.4 4.3 15.7 0c4.3-4.3 4.3-11.4 0-15.7L194.1 86.3z" class="style0"/></g></svg>
