<?xml version="1.0" encoding="utf-8"?>
<!-- Generator: Adobe Illustrator 19.1.0, SVG Export Plug-In . SVG Version: 6.00 Build 0)  -->
<svg version="1.1" id="Ebene_1" xmlns="http://www.w3.org/2000/svg" xmlns:xlink="http://www.w3.org/1999/xlink" x="0px" y="0px"
	 viewBox="0 0 86 86" style="enable-background:new 0 0 86 86;" xml:space="preserve">
<style type="text/css">
	.st0{fill:#D1E8F5;}
</style>
<g>
	<path class="st0" d="M17,30.7c0,8.1-12.2,8.1-12.2,0S17,22.6,17,30.7"/>
	<path class="st0" d="M45.8,24.1L40.8,29c-0.1,0.1-0.3,0.3-0.4,0.5c-0.2,0.3-0.4,0.7-0.5,1.1c0,0.2-0.1,0.4-0.1,0.6
		c0,0.2,0,0.4,0.1,0.6l0.5,1.1c0.1,0.2,0.2,0.3,0.3,0.4h0c0.4,0.4,0.8,0.6,1.2,0.7c0.1,0,0.2,0.1,0.4,0.1c0,0,0.1,0,0.1,0
		c0.1,0,0.2,0,0.4,0c0,0,0.1,0,0.1,0h12.2c0.8,0,1.6-0.3,2.1-0.9c0.6-0.6,0.9-1.3,0.9-2.1c0-1.7-1.4-3-3-3h-4.8l9-9l3.3,3.3
		c0.1,0.1,0.1,0.2,0.2,0.2l10.8,10.8c0.6,0.6,1.4,0.9,2.1,0.9c0.8,0,1.6-0.3,2.1-0.9c1.2-1.2,1.2-3.1,0-4.3l-7.6-7.6
		c-0.1-0.1-0.1-0.2-0.2-0.2L59.4,10.5c-0.6-0.6-1.4-0.9-2.1-0.9c-0.1,0-0.2,0-0.3,0H45.1v0c-0.7,0-1.4,0.3-2,0.9L37,16.6L37,16.7
		c-0.1,0.1-0.1,0.1-0.2,0.2L26,27.6c-0.1,0.1-0.1,0.2-0.2,0.2l-9.9,9.9c-0.1,0.1-0.1,0.2-0.2,0.2l-7.5,7.5c-0.1,0.1-0.2,0.2-0.2,0.3
		c0,0,0,0,0,0c0,0,0,0,0,0L3.7,50c-0.3,0.3-0.5,0.6-0.7,1c0,0.1-0.1,0.2-0.1,0.3c-0.1,0.3-0.1,0.6-0.1,0.9c0,0.1,0,0.2,0,0.3v5.8
		c0,0,0,0,0,0v3.9c0,0,0,0,0,0c0,1.7,1.4,3,3,3c1.7,0,3-1.4,3-3v-8.8l1.9-1.9v19.2l-9.9,9.9C0.3,81.2,0,82,0,82.8
		c0,0.8,0.3,1.6,0.9,2.2c1.2,1.2,3.1,1.2,4.3,0L16,74.2c0.1-0.1,0.2-0.2,0.2-0.3c0.1-0.1,0.1-0.1,0.1-0.2c0.1-0.2,0.2-0.3,0.3-0.5
		c0-0.1,0.1-0.1,0.1-0.2c0.1-0.3,0.2-0.6,0.2-1v-9.8H29v12.2c0,0.8,0.3,1.6,0.9,2.1c0.6,0.6,1.3,0.9,2.1,0.9c1.7,0,3-1.4,3-3V59.2
		c0-1.7-1.4-3-3-3h-9.1V39.3l2.5-2.5c0,0,0.1-0.1,0.1-0.1l5.4-5.4c0.1-0.1,0.1-0.2,0.2-0.2l3.2-3.2c0.1-0.1,0.2-0.1,0.2-0.2l9-9h7.6
		L45.8,24.1C45.8,24.1,45.8,24.1,45.8,24.1z"/>
	<rect x="39.9" y="39.8" class="st0" width="46.1" height="46.1"/>
	<path class="st0" d="M38.1,9.6c0,8.1-12.2,8.1-12.2,0C25.9,1.4,38.1,1.4,38.1,9.6"/>
</g>
</svg>
