<?xml version="1.0" encoding="utf-8"?>
<!-- Generator: Adobe Illustrator 19.1.0, SVG Export Plug-In . SVG Version: 6.00 Build 0)  -->
<svg version="1.1" id="Ebene_1" xmlns="http://www.w3.org/2000/svg" xmlns:xlink="http://www.w3.org/1999/xlink" x="0px" y="0px"
	 viewBox="0 0 132 132" style="enable-background:new 0 0 132 132;" xml:space="preserve">
<style type="text/css">
	.st0{fill:none;stroke:#000000;stroke-width:2;stroke-miterlimit:10;}
</style>
<g>
	<circle class="st0" cx="66" cy="66" r="65"/>
	<path d="M106,75.6c0-6.5-3.7-12.1-9.2-14.8C96.2,44.3,82.7,31,66,31S35.8,44.3,35.2,60.8c-5.4,2.7-9.2,8.3-9.2,14.8
		c0,8.2,5.9,14.9,13.7,16.3c1.5,0.3,2.8-0.9,2.8-2.4V61.7c0-1.5-1.3-2.7-2.8-2.4c-0.2,0-0.4,0.1-0.6,0.1
		C40.2,45.6,51.9,34.8,66,34.8s25.8,10.8,26.9,24.7c-0.2-0.1-0.4-0.1-0.6-0.1c-1.5-0.3-2.8,0.9-2.8,2.4v27.6c0,1.2,0.9,2.2,2,2.4
		c-0.7,2.5-3,4.4-5.9,4.4h-6.7c-0.5-1.2-1.7-2-3-2h-6.6c-1.9,0-3.4,1.5-3.4,3.4c0,1.9,1.5,3.4,3.4,3.4h6.6c1.3,0,2.4-0.8,3-1.9h6.7
		c4.6,0,8.4-3.4,9-7.8C101.2,89.1,106,82.8,106,75.6z"/>
</g>
</svg>
