<svg xmlns="http://www.w3.org/2000/svg" xmlns:xlink="http://www.w3.org/1999/xlink" version="1.1" x="0px" y="0px" viewBox="0 0 100 85" enable-background="new 0 0 100 85" xml:space="preserve" width="100" height="85"><g><path d="M58 30.6c-1.4-1.2-2.7-2.2-4-2.8c-1.3-0.6-2.6-0.9-4.1-0.9c-1.7 0-2.9 0.3-3.7 0.9c-0.8 0.6-1.2 1.6-1.2 3.2 c0 1 0.5 1.8 1.5 2.6c1 0.7 2.2 1.5 3.7 2.2c1.5 0.7 3.1 1.5 4.8 2.3c1.7 0.8 3.3 1.8 4.8 3c1.5 1.2 2.8 2.6 3.7 4.3 c1 1.7 1.5 3.7 1.5 6c0 3.8-1 7.1-3 9.8c-2 2.8-5.1 4.6-9.2 5.6v8.3h-8.7v-7.8c-2.2-0.3-4.6-0.9-7.1-1.8c-2.5-1-4.8-2.3-6.7-4.1 l5.8-9c2.1 1.6 4 2.7 5.7 3.4c1.7 0.7 3.4 1 5 1c2 0 3.4-0.4 4.2-1.1c0.8-0.7 1.2-1.8 1.2-3.3c0-1-0.5-2-1.5-2.8 c-1-0.8-2.2-1.6-3.7-2.4c-1.5-0.8-3.1-1.6-4.8-2.5s-3.3-1.9-4.8-3.1c-1.5-1.2-2.8-2.6-3.7-4.2c-1-1.6-1.5-3.6-1.5-5.8 c0-4 1.1-7.2 3.2-9.8c2.1-2.6 5.1-4.3 8.9-5.1V8.5h8.7v8c2.5 0.4 4.7 1.2 6.6 2.3c1.9 1.1 3.6 2.5 5.2 4.2L58 30.6z"/></g></svg>
