<?xml version="1.0" encoding="utf-8"?>
<!-- Generator: Adobe Illustrator 19.1.0, SVG Export Plug-In . SVG Version: 6.00 Build 0)  -->
<svg version="1.1" id="Ebene_1" xmlns="http://www.w3.org/2000/svg" xmlns:xlink="http://www.w3.org/1999/xlink" x="0px" y="0px"
	 viewBox="0 0 86 86" style="enable-background:new 0 0 86 86;" xml:space="preserve">
<style type="text/css">
	.st0{fill:#D1E8F5;}
</style>
<rect x="64.7" y="39.9" class="st0" width="9.4" height="5.3"/>
<rect x="38.3" y="65.1" class="st0" width="5.3" height="9.4"/>
<polygon class="st0" points="55,24.8 61.6,18.1 65.4,21.9 58.7,28.5 "/>
<rect x="55.5" y="59.2" transform="matrix(-0.7073 -0.7069 0.7069 -0.7073 59.029 148.0923)" class="st0" width="9.4" height="5.3"/>
<rect x="12.1" y="40.3" class="st0" width="9.4" height="5.3"/>
<rect x="21.3" y="21.1" transform="matrix(0.7073 0.7069 -0.7069 0.7073 24.3754 -11.4855)" class="st0" width="9.4" height="5.3"/>
<path class="st0" d="M25.8,56.8l12.5-12.5V19h8v28.5c-0.6,0.6-14.9,15-14.9,15L25.8,56.8z"/>
<path class="st0" d="M12.7,73.1c4,4,8.6,7,13.5,9.1c0.2,0.1,0.4,0.2,0.6,0.2c0.2,0.1,0.3,0.1,0.5,0.2c5,2,10.4,3.1,16,3.1v-0.1
	c11,0,21.9-4.2,30.2-12.6c9.4-9.4,13.6-22.2,12.4-34.6l0.2,0C84,16.8,65.6-0.2,43.3-0.2C29.9-0.2,17.9,5.9,10,15.6l-0.1-0.2
	C-4,32.3-3.1,57.3,12.7,73.1z M43.3,7.3c9.7,0,18.5,3.9,24.9,10.3l0,0C82,31.4,82,53.9,68.2,67.7C57.6,78.3,41.9,80.8,29,75.2
	c-12.4-5.5-21.1-18-21.1-32.4C7.8,23.2,23.7,7.3,43.3,7.3z"/>
</svg>
