<svg xmlns="http://www.w3.org/2000/svg" xmlns:xlink="http://www.w3.org/1999/xlink" version="1.1" x="0px" y="0px" viewBox="0 0 17 12" enable-background="new 0 0 17 12" xml:space="preserve" width="17" height="12"><style>.style0{fill:	#168CCC;}</style><path d="M5.3 8.6H3.2c0-0.3 0-0.5 0-0.5c0-0.6 0.1-1.2 0.3-1.6c0.2-0.4 0.7-0.9 1.3-1.4c0.7-0.5 1.1-0.9 1.2-1 c0.2-0.3 0.3-0.5 0.3-0.8c0-0.4-0.2-0.8-0.5-1.1C5.5 1.8 5 1.7 4.4 1.7c-0.6 0-1.1 0.2-1.4 0.5C2.6 2.5 2.3 2.9 2.1 3.6L0.1 3.3 C0.1 2.4 0.5 1.6 1.3 1s1.8-1 3-1c1.3 0 2.3 0.3 3.1 1c0.8 0.7 1.2 1.4 1.2 2.3c0 0.5-0.1 0.9-0.4 1.4c-0.3 0.4-0.9 1-1.8 1.8 C5.8 6.8 5.5 7.1 5.4 7.3C5.3 7.6 5.3 8 5.3 8.6z M3.2 12v-2h2v2H3.2z" class="style0"/></svg>
