<svg xmlns="http://www.w3.org/2000/svg" xmlns:xlink="http://www.w3.org/1999/xlink" version="1.1" x="0px" y="0px" viewBox="0 0 26 16" enable-background="new 0 0 26 16" xml:space="preserve" width="26" height="16"><style>.style0{fill:	#A1A1A1;}</style><path d="M15.7 13.5L15.7 13.5L15.7 13.5l-3.9-3.9c0.5-0.9 0.8-2 0.9-3.1c0-3.5-2.8-6.3-6.3-6.4c0 0 0 0 0 0 C2.8 0 0 2.8 0 6.3c0 3.5 2.8 6.3 6.3 6.4c0 0 0 0 0 0c1.2 0 2.2-0.3 3.2-0.9l3.8 3.8h0l0.1 0.1c0.3 0.3 0.8 0.3 1.1 0l1.2-1.2 C16 14.2 16 13.8 15.7 13.5z M6.3 11.1c-2.6 0-4.7-2.1-4.7-4.7c0-2.6 2.1-4.7 4.7-4.7h0c1.3 0 2.4 0.5 3.3 1.4 C10.5 3.9 11 5.1 11 6.4c0 1.3-0.5 2.4-1.4 3.3C8.7 10.6 7.6 11.1 6.3 11.1L6.3 11.1z" class="style0"/></svg>
