<?xml version="1.0" encoding="utf-8"?>
<!-- Generator: Adobe Illustrator 19.1.0, SVG Export Plug-In . SVG Version: 6.00 Build 0)  -->
<svg version="1.1" id="Ebene_1" xmlns="http://www.w3.org/2000/svg" xmlns:xlink="http://www.w3.org/1999/xlink" x="0px" y="0px"
	 viewBox="0 0 86 86" style="enable-background:new 0 0 86 86;" xml:space="preserve">
<style type="text/css">
	.st0{fill:#D1E8F5;}
</style>
<g>
	<path class="st0" d="M52.6,53.7c0,0.9,0.1,1.7,0.4,2.5c0.7,2.2,2.3,4,4.4,5c0.7,0.3,1.4,0.6,2.2,0.7c0.5,0.1,1,0.1,1.5,0.1
		c0.5,0,1-0.1,1.4-0.1c0.8-0.1,1.5-0.4,2.2-0.7c2.1-1,3.7-2.8,4.4-5.1c0.3-0.8,0.4-1.6,0.4-2.5c0-4.6-3.8-8.4-8.4-8.4
		C56.4,45.3,52.6,49.1,52.6,53.7z"/>
	<path class="st0" d="M80.5,76.9C80.4,71.4,76.1,66,69.8,66H52.2c-5.9,0-10.6,4.8-10.6,10.9c0,0,0,0.1,0,0.1v9h39v-8.9
		C80.5,77.1,80.5,77,80.5,76.9z"/>
	<path class="st0" d="M21.3,36.2c0.7,0.3,1.4,0.6,2.2,0.7c0.5,0.1,1,0.1,1.5,0.1c0.5,0,1-0.1,1.4-0.1c0.8-0.1,1.5-0.4,2.2-0.7
		c2.1-1,3.7-2.8,4.4-5.1c0.3-0.8,0.4-1.6,0.4-2.5c0-4.6-3.8-8.4-8.4-8.4c-4.6,0-8.4,3.8-8.4,8.4c0,0.9,0.1,1.7,0.4,2.5
		C17.6,33.4,19.2,35.2,21.3,36.2z"/>
	<path class="st0" d="M44.5,52.1c0-0.1,0-0.2,0-0.2C44.3,46.3,40.1,41,33.7,41H16.1c-5.9,0-10.6,4.8-10.6,10.9c0,0,0,0.1,0,0.1v9h39
		V52.1z"/>
	<path class="st0" d="M74.1,31.9h-15l0,9l-12.3-9h-2.6c-3.5,0-6.4-2.9-6.4-6.4V6.4c0-3.5,2.9-6.4,6.4-6.4h29.9
		c3.5,0,6.4,2.9,6.4,6.4v19.1C80.5,29,77.7,31.9,74.1,31.9z"/>
</g>
</svg>
