<?xml version="1.0" encoding="UTF-8" standalone="no"?>
<svg width="20px" height="14px" viewBox="0 0 20 14" version="1.1" xmlns="http://www.w3.org/2000/svg" xmlns:xlink="http://www.w3.org/1999/xlink" xmlns:sketch="http://www.bohemiancoding.com/sketch/ns">
    <!-- Generator: Sketch 3.3.3 (12081) - http://www.bohemiancoding.com/sketch -->
    <title>passenger_icon</title>
    <desc>Created with Sketch.</desc>
    <defs></defs>
    <g id="Booking" stroke="none" stroke-width="1" fill="none" fill-rule="evenodd" sketch:type="MSPage">
        <g id="passenger_icon" sketch:type="MSArtboardGroup" fill="#686868">
            <g id="Imported-Layers" sketch:type="MSLayerGroup" transform="translate(0.000000, -1.000000)">
                <g id="Fill-1-+-Fill-2" transform="translate(11.000000, 0.000000)" sketch:type="MSShapeGroup">
                    <path d="M3.17637094,9.39643555 C1.85302422,9.39643555 0.794233906,9.77000651 0,10.2368208 C1.23553771,11.3575337 1.76465052,12.6653309 1.85302422,12.7585742 L1.94139792,12.9453597 L1.94139792,15 L9,15 L9,13.1321452 C8.9116263,13.1321452 7.49990589,9.39643555 3.17637094,9.39643555" id="Fill-1"></path>
                    <path d="M7.50587754,4.25968537 C7.50587754,6.06478027 6.06821637,7.52858073 4.29535531,7.52858073 C2.52278777,7.52858073 1.0851266,6.06478027 1.0851266,4.25968537 C1.0851266,2.45488933 2.52278777,0.991088867 4.29535531,0.991088867 C6.06821637,0.991088867 7.50587754,2.45488933 7.50587754,4.25968537" id="Fill-2"></path>
                </g>
                <path d="M5.96227263,9.40534668 C1.46760021,9.40534668 0,13.1410563 0,13.1410563 L0,15.0089111 L11.9242517,15.0089111 L11.9242517,13.1410563 C11.9242517,13.1410563 10.4566515,9.40534668 5.96227263,9.40534668 L5.96227263,9.40534668 Z M2.7517504,4.2685965 C2.7517504,2.49428385 4.21935062,1 5.96227263,1 C7.70490112,1 9.17250134,2.49428385 9.17250134,4.2685965 C9.17250134,6.04320801 7.70490112,7.53749186 5.96227263,7.53749186 C4.21935062,7.53749186 2.7517504,6.04320801 2.7517504,4.2685965 L2.7517504,4.2685965 Z" id="Fill-3" sketch:type="MSShapeGroup"></path>
            </g>
        </g>
    </g>
</svg>