<svg xmlns="http://www.w3.org/2000/svg" xmlns:xlink="http://www.w3.org/1999/xlink" version="1.1" x="0px" y="0px" viewBox="0 0 100 85" enable-background="new 0 0 100 85" xml:space="preserve" width="100" height="85"><style>.style0{fill:	#1F1F1F;}.style1{fill:	#FFFFFF;}</style><g><path d="M15.8 51H14l-8.1-1.2c0 0-0.9-0.1-1.4-0.7s-0.6-0.4-0.7-0.9s-0.5-3-0.5-3.2c0.1-0.2 0.3-0.7 0.6-1 c0.3-0.3 0.7-0.9 0.9-2.2c0.3-1.3 0.5-2.6 0.8-3c0.3-0.4 0.3-0.6 0.6-1.1c0.3-0.5 0.4-1.2 1.9-1.4s3.8-0.5 4.8-0.6 c1-0.2 1.4-0.2 2.3-0.6c0.9-0.5 5.8-3 7.1-3.6c1.3-0.6 2-1.1 3.6-1.5c1.6-0.5 2.2-0.6 2.4-0.6s0.2 0 0.3-0.6c0 0 0.2-0.1 0.3 0 c0.1 0.1 0.3 0.5 0.3 0.5s1.9-0.3 2.6-0.3c0.7-0.1 7.4-0.8 13.7-0.3c6.3 0.5 6.8 0.6 7.5 0.7s2.7 0.5 4.5 1.4c1.8 1 8.4 4.7 8.8 5 s2 1.3 2 1.3l1.6 0c0 0 11.2 0.9 15.6 1.9c4.4 1.1 6.3 1.5 7.2 2.1c1 0.5 1.2 0.7 1.5 1.4c0.3 0.6 0.6 1.2 0.7 1.5 c0.1 0.3 0.2 1.4 0.2 2.1s0.1 1.2 0.1 1.3c0 0.5 0 0.9 0 1c0 0.2-0.1 1.4-0.1 1.4L94.9 50l0 0.7l0.3 0.4c0 0 0 0.9-0.1 1.2 s-0.4 0.4-0.7 0.5c-0.3 0.1-4.9 1.1-4.9 1.1s-1.5-0.2-1.7-0.1S86.9 54 86.9 54h-1.7l-12.6-0.4c0 0-2.1 0.3-4.9 0.3 c-2.8 0-26.2-0.7-26.2-0.7l-13-0.6L15.8 51z" class="style0"/><path d="M22.9 36c0 0 1.5-1.7 2.6-2.5c1.1-0.8 3-1.9 3.1-2c0.2-0.1 0.3-0.1 0.3-0.1S28.7 32 28.7 36H22.9L22.9 36z" class="style1"/><path d="M29.3 36l0.1-4.7c0 0 1.1-0.5 1.9-0.7c0.8-0.2 2.2-0.4 2.9-0.5c0.7-0.1 2.8-0.2 3.8-0.2c1 0 2.7 0 2.7 0 l-0.1 6.6L29.3 36z" class="style1"/><path d="M43.2 29.8c0 0 1.4 0 2.4 0.1c1 0.1 2.7 0.2 3.8 0.5c1.1 0.2 1.8 0.4 2.4 0.6c0.5 0.2 1.4 0.6 2.1 0.9 c0.7 0.4 2.1 1.2 2.8 1.6s2.7 1.9 2.7 1.9s-0.9 0-1.1 0.1c-0.2 0.1-0.9 0.3-1 0.6c-0.1 0.3-0.3 1.1-0.3 1.2c0 0.1 0 0.3 0 0.3 s-10.1-1.2-12.8-1.2L43.2 29.8z" class="style1"/><path d="M55.6 30.3c0 0-1.4-0.2-1.7-0.2s-0.5 0.1-0.4 0.2s3.5 2 4.7 2.6c1.1 0.7 3.4 2.3 4.1 2.7s1.3 0.8 1.9 1.1 c0.6 0.2 1.2 0.5 1.6 0.6c0.4 0 0.8 0 1.1 0s0.9-0.1 0.9-0.1S58.3 31.3 55.6 30.3z" class="style1"/><path d="M85.1 41.6c0 0 0.5-0.5 1.7-0.5c1.3 0 2.2 0.3 3 0.8s1.7 1 2 1.3c0.2 0.2 0.7 0.9 0.8 1.3s0.3 0.7 0.3 0.9 c0 0.1 0 0.4-0.2 0.5c-0.2 0.1-0.3 0.1-0.6 0c-0.3-0.1-2-1-2.3-1c-0.3-0.1-0.6-0.1-0.8-0.2C88.9 44.5 86.6 43.4 85.1 41.6z" class="style1"/><path d="M93.5 42.1c0 0-0.4 0.2-0.4 0.3c0 0.1 0 0.7 0 1c0 0.4 0.5 2.2 0.6 2.5c0.2 0.3 0.3 0.5 0.4 0.6 c0.1 0.1 0.3 0.3 0.4 0.3c0.1 0 0.2-0.2 0.2-0.5s0.1-1.3-0.1-2S93.7 42 93.5 42.1z" class="style1"/><path d="M6.5 38.3c0 0 1.6-0.1 2.3-0.1c0.7 0.1 1 0.1 1.4 0.3s0.5 0.5 0.6 0.7c0.1 0.2-0.1 0.4-0.4 0.7 c-0.3 0.3-1.3 1.2-1.5 1.3c-0.2 0.1-0.4 0.3-0.7 0.4c-0.3 0.1-1.3 0.1-1.8 0.1c-0.4 0-0.9 0.1-1 0C5.4 41.7 5.4 39.9 6.5 38.3z" class="style1"/><g><circle cx="21.6" cy="49.9" r="6.8" class="style0"/><path d="M21.6 56.9c-3.9 0-7-3.1-7-7c0-3.9 3.1-7 7-7s7 3.1 7 7C28.6 53.8 25.4 56.9 21.6 56.9z M21.6 43.4 c-3.6 0-6.6 2.9-6.6 6.6c0 3.6 2.9 6.6 6.6 6.6s6.6-2.9 6.6-6.6C28.1 46.3 25.2 43.4 21.6 43.4z" class="style1"/></g><g><circle cx="78.4" cy="49.9" r="6.8" class="style0"/><path d="M78.4 56.9c-3.9 0-7-3.1-7-7c0-3.9 3.1-7 7-7c3.9 0 7 3.1 7 7C85.5 53.8 82.3 56.9 78.4 56.9z M78.4 43.4 c-3.6 0-6.6 2.9-6.6 6.6c0 3.6 2.9 6.6 6.6 6.6s6.6-2.9 6.6-6.6C85 46.3 82.1 43.4 78.4 43.4z" class="style1"/></g><path d="M20.7 45.2c0 0 0.2 0.5 0.2 1.1c0 0.6 0 1 0 1.3c0 0.3-0.1 0.5-0.2 0.7c-0.1 0.1-0.3 0.3-0.5 0.3 c-0.2 0-0.5 0-0.9-0.3c-0.4-0.2-1.1-0.5-1.3-0.6s-0.4-0.3-0.4-0.4c0-0.1 0.6-1 1.3-1.4C19.6 45.5 20 45.3 20.7 45.2z" class="style1"/><path d="M25.5 47.6c0 0-0.5 0.3-1 0.5s-0.9 0.3-1.3 0.4s-0.5 0.1-0.7 0c-0.2-0.1-0.4-0.2-0.4-0.4c0-0.2-0.1-0.5 0-1 c0.1-0.5 0.2-1.2 0.2-1.4s0.2-0.5 0.3-0.5s1.1 0.3 1.7 0.8S25.2 46.9 25.5 47.6z" class="style1"/><path d="M24.7 53c0 0-0.5-0.4-0.8-0.8c-0.3-0.5-0.6-0.8-0.7-1.1c-0.2-0.3-0.2-0.5-0.2-0.7c0-0.2 0.1-0.4 0.3-0.5 c0.2-0.1 0.4-0.2 0.9-0.3s1.2-0.2 1.4-0.2c0.2 0 0.5 0 0.6 0.1c0 0.1 0 1.2-0.3 1.9C25.5 52.1 25.3 52.5 24.7 53z" class="style1"/><path d="M19.8 54.2c0 0 0.2-0.6 0.5-1.1c0.3-0.5 0.5-0.8 0.7-1.1c0.2-0.3 0.3-0.4 0.5-0.4c0.2 0 0.4-0.1 0.6 0.1 s0.4 0.3 0.6 0.7c0.2 0.4 0.6 1 0.7 1.2s0.2 0.5 0.1 0.6c-0.1 0.1-1.1 0.5-1.8 0.4C21 54.5 20.5 54.5 19.8 54.2z" class="style1"/><path d="M17.1 49.4c0 0 0.6 0 1.1 0.2s1 0.3 1.3 0.4c0.3 0.1 0.5 0.2 0.6 0.4c0.1 0.2 0.2 0.4 0.1 0.6 c-0.1 0.2-0.2 0.4-0.6 0.8c-0.4 0.3-0.8 0.9-1 1c-0.2 0.1-0.4 0.3-0.5 0.2c-0.1-0.1-0.7-0.9-0.9-1.7C17 50.6 16.9 50.2 17.1 49.4z" class="style1"/><circle cx="21.1" cy="48.8" r="0.2" class="style1"/><circle cx="22.4" cy="49.1" r="0.2" class="style1"/><circle cx="22.6" cy="50.3" r="0.2" class="style1"/><circle cx="21.6" cy="51.1" r="0.2" class="style1"/><circle cx="20.6" cy="50.1" r="0.2" class="style1"/><path d="M77.6 45.2c0 0 0.2 0.5 0.2 1.1s0 1 0 1.3c0 0.3-0.1 0.5-0.2 0.7c-0.1 0.1-0.3 0.3-0.5 0.3 c-0.2 0-0.5 0-0.9-0.3c-0.4-0.2-1.1-0.5-1.3-0.6c-0.2-0.1-0.4-0.3-0.4-0.4c0-0.1 0.6-1 1.3-1.4C76.5 45.5 76.8 45.3 77.6 45.2z" class="style1"/><path d="M82.4 47.6c0 0-0.5 0.3-1 0.5s-0.9 0.3-1.3 0.4c-0.3 0.1-0.5 0.1-0.7 0c-0.2-0.1-0.4-0.2-0.4-0.4 s-0.1-0.5 0-1c0.1-0.5 0.2-1.2 0.2-1.4s0.2-0.5 0.3-0.5s1.1 0.3 1.7 0.8S82.1 46.9 82.4 47.6z" class="style1"/><path d="M81.6 53c0 0-0.5-0.4-0.8-0.8c-0.3-0.5-0.6-0.8-0.7-1.1s-0.2-0.5-0.2-0.7c0-0.2 0.1-0.4 0.3-0.5 c0.2-0.1 0.4-0.2 0.9-0.3c0.5 0 1.2-0.2 1.4-0.2c0.2 0 0.5 0 0.6 0.1c0 0.1 0 1.2-0.3 1.9C82.4 52.1 82.2 52.5 81.6 53z" class="style1"/><path d="M76.7 54.2c0 0 0.2-0.6 0.5-1.1c0.3-0.5 0.5-0.8 0.7-1.1c0.2-0.3 0.3-0.4 0.5-0.4c0.2 0 0.4-0.1 0.6 0.1 c0.2 0.2 0.4 0.3 0.6 0.7s0.6 1 0.7 1.2c0.1 0.2 0.2 0.5 0.1 0.6c-0.1 0.1-1.1 0.5-1.8 0.4C77.9 54.5 77.4 54.5 76.7 54.2z" class="style1"/><path d="M74 49.4c0 0 0.6 0 1.1 0.2s1 0.3 1.3 0.4c0.3 0.1 0.5 0.2 0.6 0.4c0.1 0.2 0.2 0.4 0.1 0.6 c-0.1 0.2-0.2 0.4-0.6 0.8c-0.4 0.3-0.8 0.9-1 1c-0.2 0.1-0.4 0.3-0.5 0.2c-0.1-0.1-0.7-0.9-0.9-1.7C73.9 50.6 73.8 50.2 74 49.4z" class="style1"/><circle cx="78" cy="48.8" r="0.2" class="style1"/><circle cx="79.2" cy="49.1" r="0.2" class="style1"/><circle cx="79.5" cy="50.3" r="0.2" class="style1"/><circle cx="78.5" cy="51.1" r="0.2" class="style1"/><circle cx="77.5" cy="50.1" r="0.2" class="style1"/></g><g></g></svg>
