<?xml version="1.0" encoding="UTF-8" standalone="no"?>
<svg xmlns:sketch="http://www.bohemiancoding.com/sketch/ns" xmlns="http://www.w3.org/2000/svg" height="12px" width="12px" version="1.1" xmlns:xlink="http://www.w3.org/1999/xlink" viewBox="0 0 12 12"><!-- Generator: Sketch 3.4.2 (15857) - http://www.bohemiancoding.com/sketch -->
 <title>Shape</title>
 <desc>Created with Sketch.</desc>
 <g id="Page-1" fill-rule="evenodd" sketch:type="MSPage" fill="none">
  <g id="Desktop-HD" transform="translate(-1268 -621)" fill="#1F1F1F" sketch:type="MSArtboardGroup">
   <g id="Rides_Liste-+-Rectangle-3-+-driver-rating-+-car-rating" transform="translate(0 236)" sketch:type="MSLayerGroup">
    <g id="driver-rating-+-car-rating" sketch:type="MSShapeGroup" transform="translate(1268 353)">
     <g id="car-rating" transform="translate(0 27.5)">
      <path id="Shape" d="m9.6667 5h-1.6667-4-1.6667c-0.44 0-0.8066 0.28-0.9466 0.6733l-1.3867 3.9934v5.3333c0 0.367 0.3 0.667 0.66667 0.667h0.66663c0.3667 0 0.6667-0.3 0.6667-0.667v-0.667h8v0.667c0 0.367 0.3 0.667 0.667 0.667h0.666c0.367 0 0.667-0.3 0.667-0.667v-5.3333l-1.387-3.9934c-0.133-0.3933-0.506-0.6733-0.9463-0.6733zm-7.3334 7.333c-0.5533 0-1-0.446-1-1 0-0.553 0.4467-1 1-1 0.5534 0 1 0.447 1 1 0 0.554-0.4466 1-1 1zm7.3334 0c-0.5534 0-1-0.446-1-1 0-0.553 0.4466-1 1-1 0.5533 0 1.0003 0.447 1.0003 1 0 0.554-0.447 1-1.0003 1zm-8.3334-3.333l1-3h7.3334l1.0003 3h-9.3337z"/>
     </g>
    </g>
   </g>
  </g>
 </g>
</svg>
