<svg xmlns="http://www.w3.org/2000/svg" xmlns:xlink="http://www.w3.org/1999/xlink" version="1.1" x="0px" y="0px" viewBox="0 0 100 85" enable-background="new 0 0 100 85" xml:space="preserve" width="100" height="85"><style>.style0{fill:	#FFFFFF;}</style><g></g><g><g><path d="M64.4 4.2H36.2c-2.7 0-4.9 2.5-4.9 5.6v65.5c0 3.1 2.2 5.6 4.9 5.6h28.2c2.7 0 4.9-2.5 4.9-5.6V9.8 C69.2 6.7 67.1 4.2 64.4 4.2z M47.1 8.9h6.4v2.4h-6.4V8.9z M66.6 68.5H34v-52h32.6V68.5z"/><circle cx="50" cy="74.4" r="2.9" class="style0"/><circle cx="44.4" cy="10" r="1" class="style0"/><rect x="30.8" y="20.1" width="2.1" height="4"/><rect x="30.8" y="26" width="2.1" height="6.3"/></g></g></svg>
