<?xml version="1.0" encoding="utf-8"?>
<!-- Generator: Adobe Illustrator 19.1.0, SVG Export Plug-In . SVG Version: 6.00 Build 0)  -->
<svg version="1.1" id="Ebene_1" xmlns="http://www.w3.org/2000/svg" xmlns:xlink="http://www.w3.org/1999/xlink" x="0px" y="0px"
	 viewBox="0 0 86 86" style="enable-background:new 0 0 86 86;" xml:space="preserve">
<style type="text/css">
	.st0{fill:#D1E8F5;}
</style>
<g>
	<polygon class="st0" points="59.2,34.9 53.8,20.2 36.3,16 25.2,27.9 30.6,45 47.2,48 	"/>
	<polygon class="st0" points="51.1,65.1 65.1,67.6 76.3,55.5 73.6,39.5 60.9,36.4 48.8,49.6 	"/>
	<polygon class="st0" points="11.8,28 4.7,41.6 9.3,56.2 21,58.8 28.5,45.9 23.1,28.7 	"/>
	<path class="st0" d="M39.7,83.6c-3.7-0.3-7.3-1.1-10.7-2.4c-0.4-0.2-0.9-0.3-1.3-0.5l0.1-0.6l5.3-0.4L33,73.6L21,61.1L9.7,58.6
		l0.7,8.7c-0.4-0.6-0.9-1.1-1.3-1.7C4.8,59.1,2.3,51.3,2.3,43c0-0.3,0.1-2.4,0.1-2.6h0.4l7.3-14l3.2-11.2c0.5-0.6,1.1-1.1,1.7-1.7
		c0.3-0.3,3.3-2.9,4.5-3.7l8.8-3.8l0,0l1.8-0.8l0,0L35.4,3c1.4-0.3,2.9-0.5,4.4-0.6c0.8-0.1,1.6-0.1,2.4-0.1l0.1,0.3L31.5,7l5.1,6.7
		L54.5,18l8.8-5.4l-5.8-7.5L57.6,5c0.6,0.2,1.3,0.5,1.9,0.8c0.8,0.3,1.5,0.7,2.3,1.1l4.4,5.7l12,13.2L80,26c0.2,0.4,0.4,0.8,0.6,1.2
		c0.2,0.4,0.3,0.8,0.4,1.2l-2.6-0.4l-2.7,10.5l2.8,16.3l3.1,0.8c-0.1,0.4-0.3,0.7-0.4,1.1c-3.2,8.9-9.4,16.3-17.3,21.1
		c-0.4,0.3-0.8,0.5-1.3,0.8l1.5-9l-13.9-2.4l-15,6.6l0.1,6.4l5.7,2.7l-0.2,0.7C40.4,83.6,40,83.6,39.7,83.6z M82.9,27.1
		c-0.1-0.2-0.1-0.4-0.2-0.6C76.2,10.9,60.9,0,43,0C19.3,0,0,19.3,0,43c0,23.7,19.3,43,43,43c23.7,0,43-19.3,43-43
		C86,37.4,84.9,32,82.9,27.1z"/>
</g>
</svg>
