<svg xmlns="http://www.w3.org/2000/svg" xmlns:xlink="http://www.w3.org/1999/xlink" version="1.1" x="0px" y="0px" width="16px" height="16px" viewBox="0 0 16 16" enable-background="new 0 0 16 16" xml:space="preserve"><style>.style0{fill:	#FFFFFF;}</style><path d="M15.9 6.2C15.9 6 15.8 6 15.6 6H10L8.3 0.6c0-0.1-0.2-0.2-0.3-0.2c-0.1 0-0.3 0.1-0.3 0.2L6 6H0.4 C0.2 6 0.1 6 0.1 6.2c0 0.1 0 0.3 0.1 0.3l4.5 3.3L3 15.2c0 0.1 0 0.3 0.1 0.3c0.1 0.1 0.3 0.1 0.4 0L8 12.2l4.6 3.3 c0.1 0 0.1 0.1 0.2 0.1c0.1 0 0.1 0 0.2-0.1c0.1-0.1 0.2-0.2 0.1-0.3l-1.7-5.4l4.5-3.3C15.9 6.4 16 6.3 15.9 6.2z" class="style0"/></svg>