<?xml version="1.0" encoding="UTF-8" standalone="no"?>
<svg width="20px" height="14px" viewBox="0 0 20 14" version="1.1" xmlns="http://www.w3.org/2000/svg" xmlns:xlink="http://www.w3.org/1999/xlink" xmlns:sketch="http://www.bohemiancoding.com/sketch/ns">
    <!-- Generator: Sketch 3.3.3 (12081) - http://www.bohemiancoding.com/sketch -->
    <title>suitcase_icon</title>
    <desc>Created with Sketch.</desc>
    <defs></defs>
    <g id="Booking" stroke="none" stroke-width="1" fill="none" fill-rule="evenodd" sketch:type="MSPage">
        <g id="suitcase_icon" sketch:type="MSArtboardGroup" fill="#686868">
            <g id="suitcase-icon" sketch:type="MSLayerGroup" transform="translate(0.000000, 3.000000)">
                <path d="M2,11 C0.9,11 0,10.1 0,9 L0,2 C0,0.9 0.9,0 2,0 L18,0 C19.1,0 20,0.9 20,2 L20,9 C20,10.1 19.1,11 18,11 L2,11 Z" id="Fill-1" sketch:type="MSShapeGroup"></path>
            </g>
            <path d="M7,0.1 C6.5,0.1 6,0.5 6,1.1 L6,4.6 L7.5,4.6 L7.5,0.1 L7,0.1 Z" id="Fill-2" sketch:type="MSShapeGroup"></path>
            <path d="M12.5,0.1 L13,0.1 C13.6,0.1 14,0.5 14,1.1 L14,4.6 L12.5,4.6 L12.5,0.1" id="Fill-3" sketch:type="MSShapeGroup"></path>
            <path d="M7.5,0.1 L12.6,0.1 L12.6,1.4 L7.5,1.4 L7.5,0.1 Z" id="Fill-4" sketch:type="MSShapeGroup"></path>
        </g>
    </g>
</svg>