<?xml version="1.0" encoding="utf-8"?>
<!-- Generator: Adobe Illustrator 19.1.0, SVG Export Plug-In . SVG Version: 6.00 Build 0)  -->
<svg version="1.1" id="Ebene_1" xmlns="http://www.w3.org/2000/svg" xmlns:xlink="http://www.w3.org/1999/xlink" x="0px" y="0px"
	 viewBox="0 0 86 86" style="enable-background:new 0 0 86 86;" xml:space="preserve">
<style type="text/css">
	.st0{fill:#D1E8F5;}
</style>
<g>
	<path class="st0" d="M61.1,29.8c3.3,0.5,6.3-1.8,6.7-5c0.5-3.2-1.7-6.3-5-6.7c-3.2-0.5-6.3,1.8-6.7,5
		C55.6,26.3,57.9,29.3,61.1,29.8z"/>
	<path class="st0" d="M66.9,42.2l2.9,3.2l2,11.5l3.6-0.4L74.7,44c-0.1-0.5-0.3-1-0.6-1.4l-8.4-9.5l0,0c-0.9-0.9-2.2-1.6-3.6-1.6
		c-0.7,0-1.3,0.2-1.9,0.4l-8.3-4.1l-8.1-9.6L41,20l7.4,11.5c0.2,0.2,0.5,0.5,0.8,0.6l7.9,3.9c0,0.2-0.1,0.3-0.1,0.5l-0.2,16
		c0,0.1,0,0.3,0,0.4l-2.2,13.3l-1,14.7l4.5,0.7l2.7-14.5l0.9-5.7l3.3,24l4.9-0.7l-3.1-31.9c0-0.1,0-0.1,0-0.2L66.9,42.2z"/>
	<path class="st0" d="M23.7,29.9c3.2-0.5,5.5-3.5,5-6.7c-0.5-3.2-3.5-5.5-6.7-5c-3.2,0.5-5.5,3.5-5,6.7
		C17.5,28.1,20.5,30.4,23.7,29.9z"/>
	<path class="st0" d="M40.5,16.1l-5.3,11.2L26,31.4c-0.4-0.1-0.9-0.2-1.4-0.2c0,0,0,0-0.1,0c-1.2,0-2.3,0.5-3.2,1.2l-9.6,6.8
		c-0.6,0.4-1,1.2-1.1,1.9l-0.1,13.7l3.9,0.2l1.2-12.4l3.9-2.8l0.1,12.5c0,0.2,0,0.5,0.1,0.7L18,65.8l-2.1,18.7l4.9,0.8l3.4-18.6
		l1-6.9l1.8,6.8l1.1,15.9l5-0.1l0.2-16.3c0-0.2,0-0.5-0.1-0.7l-3.4-12.7c0-0.2,0-0.3,0-0.5l-0.2-16c0-0.3,0-0.6-0.1-0.8l8.6-3.9
		c0.6-0.3,1-0.7,1.3-1.3l4.3-11.8L40.5,16.1z"/>
	<path class="st0" d="M33.1,12.6c0,0.5-0.4,1-1,1h-2c-0.6,0-1-0.4-1-1c0-0.6,0.4-1,1-1h2C32.6,11.6,33.1,12.1,33.1,12.6z M34,7
		l-1.4-1.4c-0.4-0.4-0.4-1,0-1.4c0.4-0.4,1-0.4,1.4,0l1.4,1.4c0.4,0.4,0.4,1,0,1.4C35,7.4,34.4,7.4,34,7z M41,4.7c-0.5,0-1-0.4-1-1
		v-2c0-0.5,0.4-1,1-1s1,0.4,1,1v2C42,4.3,41.5,4.7,41,4.7z M48,7c-0.4,0.4-1,0.4-1.4,0c-0.4-0.4-0.4-1,0-1.4L48,4.2
		c0.4-0.4,1-0.4,1.4,0c0.4,0.4,0.4,1,0,1.4L48,7z M51.9,13.6h-2c-0.5,0-1-0.4-1-1c0-0.6,0.4-1,1-1h2c0.5,0,1,0.4,1,1
		C52.8,13.2,52.4,13.6,51.9,13.6z"/>
	<polygon class="st0" points="49.5,70 71.7,73 66.8,52.6 56.8,50.8 	"/>
</g>
</svg>
