<?xml version="1.0" encoding="UTF-8"?><!DOCTYPE svg PUBLIC "-//W3C//DTD SVG 1.1//EN" "http://www.w3.org/Graphics/SVG/1.1/DTD/svg11.dtd"><svg xmlns="http://www.w3.org/2000/svg"><symbol id="asia_miles_logo" viewBox="0 0 163 42"><title>asia_miles_logo@2x</title><g fill="none" fill-rule="evenodd"><path d="M112.194 41.766c-2.13 0-4.196-.986-5.266-2.51l-.091-.132 1.792-1.557.115.149c.857 1.107 2.138 1.769 3.428 1.769 1.722 0 2.793-.781 2.793-2.037 0-1.233-.668-1.98-2.465-2.76l-1.44-.62c-2.384-1.014-3.543-2.523-3.543-4.613 0-2.578 2.423-4.12 4.766-4.12 1.848 0 3.421.72 4.547 2.08l.103.125-1.67 1.668-.124-.148c-.863-1.025-1.709-1.443-2.923-1.443-1.12 0-2.326.589-2.326 1.882 0 1.078.643 1.801 2.22 2.494l1.44.62c2.6 1.136 3.81 2.601 3.81 4.614 0 2.715-2.076 4.539-5.166 4.539zm-90.322 0c-2.13 0-4.197-.986-5.266-2.51l-.092-.132 1.793-1.557.114.149c.858 1.107 2.139 1.769 3.429 1.769 1.722 0 2.792-.781 2.792-2.037 0-1.233-.667-1.98-2.464-2.76l-1.44-.62c-2.384-1.014-3.544-2.523-3.544-4.613 0-2.578 2.424-4.12 4.767-4.12 1.848 0 3.42.72 4.547 2.08l.103.125-1.67 1.668-.124-.148c-.863-1.025-1.71-1.443-2.923-1.443-1.121 0-2.327.589-2.327 1.882 0 1.078.644 1.801 2.222 2.494l1.44.62c2.598 1.136 3.808 2.602 3.808 4.614 0 2.715-2.076 4.539-5.165 4.539m73.92-.176V25.512h9.443v2.304h-7.07v4.405h5.74v2.303h-5.74v4.76h7.07v2.304zm-11.504 0V25.512h2.372v13.75h6.894v2.326zM78.016 41.59h2.372V25.513h-2.372zm-6.273 0V30.937l-5.475 6.112-5.474-6.112v10.651H58.42V25.054l7.847 8.631 7.848-8.631v16.535zm-26.731-6.157h-5.32l2.66-5.624 2.66 5.624zm5.292 6.156l-7.952-16.484L34.4 41.589h2.568l1.95-4.119h6.868l1.95 4.119h2.568zm-20.364.001h2.372V25.513H29.94zM0 41.59h2.568l1.95-4.12h6.868l1.95 4.12h2.569L7.952 25.103 0 41.59zm7.952-11.781l2.66 5.624h-5.32l2.66-5.624z" fill="#FEFEFE"/><path d="M128.608 24.268c.102-1.64 2.889-2.697 5.194-3.29 3.162-.812 7.34-1.26 11.767-1.26h.24c8.443 0 17.178 1.707 17.179 4.562l-.1.338-3.072-.88v-.204c0-1.276-5.753-2.697-14.008-2.697-8.257 0-14.01 1.421-14.01 2.697v.204l-3.054.847-.136-.317z" fill="#FFD700"/><path fill="#FEFEFE" d="M145.796 0l-17.193 41.724h2.632l14.56-32.881 14.562 32.881h2.63z"/><path d="M145.807 28.85c-8.138 0-15.026-1.414-16.75-3.438-.31-.364-.473-.748-.449-1.142l.09-.188 3.1-.878v.337c0 1.276 5.754 2.697 14.01 2.697 8.255 0 14.008-1.421 14.008-2.697v-.337l3.115.827.057.256c0 1.646-2.798 2.701-5.147 3.297-3.215.816-7.489 1.266-12.033 1.266z" fill="#FFD700"/></g></symbol><symbol id="mam_logo" viewBox="0 0 153 20"><title>mam_logo@2x</title><path d="M145.203 8.19c-1.43 0-2.41.795-2.702 2.651h5.219c-.079-1.748-.98-2.652-2.517-2.652zm.108-3.049c4.612 0 7.184 3.048 6.945 8.375h-9.755c.054 1.965 1.14 3.101 2.836 3.101 1.191 0 2.096-.552 2.518-1.585h4.19c-.718 2.993-3.262 4.607-6.708 4.607-4.557 0-7.366-2.831-7.366-7.206 0-4.46 2.886-7.292 7.34-7.292zM74.828 15.984c-1.536 0-2.7-.741-2.7-2.116 0-.985.581-1.705 1.908-2.496l3.18 3.741c-.744.6-1.487.871-2.388.871zm.745-12.725c.872 0 1.67.502 1.67 1.514 0 .791-.479 1.376-1.806 2.247-.952-1.001-1.456-1.59-1.456-2.355 0-.822.636-1.406 1.592-1.406zM86.28 19.27l-3.763-4.239a10.817 10.817 0 0 0 2.359-5.49h-3.87c-.214 1.002-.533 1.906-.98 2.675l-2.36-2.625c2.122-1.3 3.235-2.701 3.235-4.715C80.9 1.987 78.593 0 75.547 0c-3.103 0-5.544 2.067-5.544 4.693 0 1.434.741 2.516 1.829 3.788-2.703 1.354-4.027 3.184-4.027 5.484 0 3.346 2.81 5.674 6.55 5.674 1.878 0 3.545-.584 5.165-1.858l1.27 1.49h5.489zM104.596.339l-3.29 11.876h-.053L98.024.339h-7.292v18.929h4.643V6.438h.05l4.004 12.83h3.762l3.949-12.83h.05v12.83h4.64V.338h-7.234zm-75.41 18.93h4.506V.34h-4.507v18.93zm-6.258 0h4.507V5.51h-4.507v13.76zM13.863.34H21.1v18.93h-4.64V6.414h-.053l-3.95 12.858H8.694l-4-12.858H4.64v12.858H0V.34h7.29l3.234 11.85h.053L13.863.34zm9.065 3.421h4.507V.34h-4.507v3.421zM42.171 8.19c-1.428 0-2.411.796-2.7 2.652h5.22c-.082-1.748-.979-2.652-2.52-2.652zm.106-3.048c4.612 0 7.183 3.048 6.944 8.375h-9.75c.05 1.965 1.138 3.101 2.833 3.101 1.19 0 2.095-.552 2.517-1.585h4.19c-.715 2.993-3.262 4.607-6.707 4.607-4.557 0-7.368-2.831-7.368-7.206 0-4.46 2.885-7.292 7.341-7.292zM58.5 10.815c2.917.585 4.559 1.564 4.559 3.978 0 2.946-2.438 4.846-6.703 4.846-4.032 0-6.336-1.722-6.417-4.607h4.32c0 .98.982 1.721 2.278 1.721 1.17 0 2.044-.584 2.044-1.56 0-.805-.584-1.065-2.652-1.38-2.436-.373-5.725-.902-5.725-4.352 0-3.496 3.392-4.32 6.177-4.32 3.976 0 6.119 1.668 6.174 4.294h-4.136c0-.872-.66-1.354-2.038-1.354-1.088 0-1.697.292-1.697 1.039 0 1.245 1.672 1.272 3.816 1.695zm61.843 5.354c1.908 0 2.78-1.137 2.78-3.654 0-2.571-.926-3.952-2.78-3.952-1.908 0-2.731 1.434-2.731 3.952 0 2.49.795 3.654 2.73 3.654zm.025-11.028c4.347 0 7.237 2.886 7.237 7.347 0 4.347-2.756 7.15-7.262 7.15-4.507 0-7.262-2.777-7.262-7.123 0-4.515 2.939-7.374 7.287-7.374zm17.283.11v3.973a8.334 8.334 0 0 0-.904-.055c-2.066 0-3.391 1.354-3.391 3.291v6.81h-4.507V5.51h4.347l.055 1.618c.741-1.11 1.774-1.932 3.686-1.932.34 0 .582.027.714.055z" fill="#FFF" fill-rule="evenodd"/></symbol><symbol id="bottled_water" viewBox="0 0 8 20"><title>bottled_water</title><g fill="#A8A8A8" fill-rule="evenodd"><path d="M2.2 2h3.6c.1 0 .2-.1.2-.2V.4c0-.2-.2-.4-.4-.4H2.4c-.2 0-.4.2-.4.4v1.4c0 .1.1.2.2.2M7.6 10.9l-.1-.4c-.3-.3-.3-.7 0-1 .3-.3.3-.7 0-1-.3-.3-.3-.7 0-1l.3-.3c.1-.1.2-.3.2-.5C7.8 4.6 6.1 3 4 3S.2 4.6 0 6.7c0 .2.1.4.2.5l.3.3c.3.3.3.7 0 1-.3.3-.3.7 0 1 .3.3.3.7 0 1l-.1.4c-.3.7-.4 1.5-.4 2.2V19c0 .6.4 1 1 1h6c.6 0 1-.4 1-1v-5.9c0-.7-.1-1.5-.4-2.2"/></g></symbol><symbol id="free_cancellation" viewBox="0 0 20 20"><title>free_cancellation</title><path d="M12.59 6L10 8.59 7.41 6 6 7.41 8.59 10 6 12.59 7.41 14 10 11.41 12.59 14 14 12.59 11.41 10 14 7.41 12.59 6zM10 0C4.47 0 0 4.47 0 10s4.47 10 10 10 10-4.47 10-10S15.53 0 10 0zm0 18c-4.41 0-8-3.59-8-8s3.59-8 8-8 8 3.59 8 8-3.59 8-8 8z" fill="#A8A8A8" fill-rule="evenodd"/></symbol><symbol id="meet_greet" viewBox="0 0 20 20"><title>meet_greet</title><g fill="#A8A8A8" fill-rule="evenodd"><path d="M13.5 6a1.5 1.5 0 1 1 0 3 1.5 1.5 0 0 1 0-3M6.5 6a1.5 1.5 0 1 1 .001 2.999A1.5 1.5 0 0 1 6.5 6"/><path d="M10 14c-1.48 0-2.75-.81-3.45-2H4.88a5.495 5.495 0 0 0 10.24 0h-1.67c-.7 1.19-1.97 2-3.45 2m0 4c-4.42 0-8-3.58-8-8s3.58-8 8-8 8 3.58 8 8-3.58 8-8 8M9.99 0C4.47 0 0 4.48 0 10s4.47 10 9.99 10C15.52 20 20 15.52 20 10S15.52 0 9.99 0"/></g></symbol><symbol id="waiting_time" viewBox="0 0 20 20"><title>waiting_time</title><g fill="#A8A8A8" fill-rule="evenodd"><path d="M10 18c-4.42 0-8-3.58-8-8s3.58-8 8-8 8 3.58 8 8-3.58 8-8 8M9.99 0C4.47 0 0 4.48 0 10s4.47 10 9.99 10C15.52 20 20 15.52 20 10S15.52 0 9.99 0"/><path d="M10.5 5H9v6l5.25 3.15.75-1.23-4.5-2.67z"/></g></symbol></svg>