<svg xmlns="http://www.w3.org/2000/svg" version="1.1" x="0" y="0" viewBox="0 0 47 28" enable-background="new 0 0 47 28" xml:space="preserve"><style>.style0{stroke:	#A2A2A2;stroke-miterlimit:	10;fill:	none;}.style1{fill:	none;}.style2{fill:	#ED1C24;}.style3{fill:	#FAA61A;}.style4{fill:	#FFFFFF;}</style><g display="none"><image display="inline" overflow="visible" width="47" height="28"/></g><path d="M45.5 27.5h-44c-0.6 0-1-0.5-1-1v-25c0-0.6 0.4-1 1-1h44c0.5 0 1 0.4 1 1v25C46.5 27 46 27.5 45.5 27.5z" class="style0"/><rect x="-27" y="-51" width="141.7" height="141.7" class="style1"/><rect x="-0.3" y="-3.7" width="47.4" height="35.5" class="style1"/><circle cx="17.4" cy="14" r="8.9" class="style2"/><path d="M29.3 5.1c-2.3 0-4.4 0.9-6 2.3 -0.3 0.3-0.6 0.6-0.9 0.9h1.8c0.2 0.3 0.5 0.6 0.7 0.9h-3.1c-0.2 0.3-0.4 0.6-0.5 0.9h4.2c0.1 0.3 0.3 0.6 0.4 0.9h-4.9c-0.1 0.3-0.2 0.6-0.3 0.9h5.4c0.1 0.6 0.2 1.2 0.2 1.9 0 1-0.2 1.9-0.5 2.8h-4.9c0.1 0.3 0.2 0.6 0.4 0.9h4.2c-0.2 0.3-0.3 0.6-0.5 0.9h-3.1c0.2 0.3 0.4 0.6 0.7 0.9h1.8c-0.3 0.3-0.6 0.6-0.9 0.9 1.6 1.4 3.7 2.3 6 2.3 4.9 0 8.9-4 8.9-8.9C38.2 9.1 34.2 5.1 29.3 5.1z" class="style3"/><path d="M37 19c0-0.2 0.1-0.3 0.3-0.3 0.2 0 0.3 0.1 0.3 0.3 0 0.2-0.1 0.3-0.3 0.3C37.1 19.2 37 19.1 37 19zM37.3 19.2c0.1 0 0.2-0.1 0.2-0.2 0-0.1-0.1-0.2-0.2-0.2 -0.1 0-0.2 0.1-0.2 0.2C37.1 19.1 37.2 19.2 37.3 19.2zM37.3 19.1L37.3 19.1l-0.1-0.3h0.1c0 0 0 0 0.1 0 0 0 0 0 0 0.1 0 0 0 0.1 0 0.1l0 0.1H37.3L37.3 19.1 37.3 19.1 37.3 19.1zM37.3 18.9L37.3 18.9C37.3 18.9 37.3 18.9 37.3 18.9 37.3 18.9 37.3 18.9 37.3 18.9 37.3 18.9 37.3 18.9 37.3 18.9 37.3 18.9 37.3 18.9 37.3 18.9L37.3 18.9 37.3 18.9z"/><path d="M15.4 15c-0.1 0-0.1 0-0.2 0 -0.5 0-0.8 0.2-0.8 0.6 0 0.2 0.1 0.4 0.3 0.4C15.1 15.9 15.3 15.5 15.4 15zM16.1 16.6c-0.1 0-0.8 0-0.8 0l0-0.4c-0.2 0.3-0.6 0.4-1 0.4 -0.5 0-0.9-0.4-0.9-1 0-0.9 0.6-1.4 1.7-1.4 0.1 0 0.2 0 0.4 0 0-0.1 0-0.2 0-0.2 0-0.2-0.2-0.3-0.6-0.3 -0.5 0-0.9 0.1-1 0.2 0-0.1 0.1-0.8 0.1-0.8 0.5-0.1 0.8-0.2 1.2-0.2 0.8 0 1.3 0.4 1.3 1.1 0 0.2 0 0.4-0.1 0.7C16.3 15.2 16.1 16.3 16.1 16.6z"/><polygon points="13 16.6 12 16.6 12.6 13.2 11.3 16.6 10.7 16.6 10.6 13.2 10 16.6 9.1 16.6 9.9 12.1 11.3 12.1 11.3 14.6 12.2 12.1 13.7 12.1"/><path d="M30.5 15c-0.1 0-0.1 0-0.2 0 -0.5 0-0.8 0.2-0.8 0.6 0 0.2 0.1 0.4 0.3 0.4C30.2 15.9 30.5 15.5 30.5 15zM31.2 16.6c-0.1 0-0.8 0-0.8 0l0-0.4c-0.2 0.3-0.6 0.4-1 0.4 -0.5 0-0.9-0.4-0.9-1 0-0.9 0.6-1.4 1.7-1.4 0.1 0 0.2 0 0.4 0 0-0.1 0-0.2 0-0.2 0-0.2-0.2-0.3-0.6-0.3 -0.5 0-0.9 0.1-1 0.2 0-0.1 0.1-0.8 0.1-0.8 0.5-0.1 0.8-0.2 1.2-0.2 0.8 0 1.3 0.4 1.3 1.1 0 0.2 0 0.4-0.1 0.7C31.4 15.2 31.2 16.3 31.2 16.6zM20.3 16.6c-0.3 0.1-0.5 0.1-0.7 0.1 -0.5 0-0.8-0.3-0.8-0.8 0-0.2 0.1-0.6 0.1-1 0.1-0.3 0.4-2.5 0.4-2.5h1L20.3 13h0.6l-0.1 0.9h-0.6c-0.1 0.7-0.3 1.6-0.3 1.7 0 0.2 0.1 0.3 0.3 0.3 0.1 0 0.2 0 0.3 0L20.3 16.6zM23.3 16.5c-0.3 0.1-0.6 0.1-1 0.1 -1.1 0-1.6-0.6-1.6-1.6 0-1.2 0.7-2.2 1.7-2.2 0.8 0 1.3 0.5 1.3 1.3 0 0.3 0 0.5-0.1 0.9h-1.9c-0.1 0.5 0.3 0.8 0.8 0.8 0.3 0 0.7-0.1 1-0.2L23.3 16.5zM22.7 14.4c0-0.1 0.1-0.7-0.4-0.7 -0.3 0-0.5 0.2-0.6 0.7H22.7zM16.6 14.1c0 0.5 0.2 0.8 0.7 1 0.4 0.2 0.4 0.2 0.4 0.4 0 0.2-0.2 0.3-0.6 0.3 -0.3 0-0.6 0-0.9-0.1 0 0-0.1 0.8-0.1 0.8 0.2 0 0.4 0.1 1 0.1 1 0 1.5-0.4 1.5-1.2 0-0.5-0.2-0.8-0.7-1 -0.4-0.2-0.4-0.2-0.4-0.4 0-0.2 0.2-0.3 0.5-0.3 0.2 0 0.4 0 0.7 0.1l0.1-0.8c-0.2 0-0.6-0.1-0.8-0.1C17 12.9 16.6 13.4 16.6 14.1zM27.9 13c0.3 0 0.5 0.1 0.9 0.2l0.2-1c-0.1-0.1-0.6-0.4-1.1-0.4 -0.6 0-1.2 0.3-1.6 0.8 -0.6-0.2-0.8 0.2-1.1 0.6L25 13.3c0-0.1 0-0.2 0-0.4h-0.9c-0.1 1.1-0.3 2.3-0.5 3.4l0 0.2h1c0.2-1 0.2-1.7 0.3-2.2l0.4-0.2c0.1-0.2 0.2-0.3 0.6-0.3 0 0.2-0.1 0.5-0.1 0.7 0 1.2 0.6 1.9 1.7 1.9 0.3 0 0.5 0 0.9-0.1l0.2-1c-0.3 0.2-0.6 0.2-0.8 0.2 -0.6 0-0.9-0.4-0.9-1.1C26.7 13.7 27.2 13 27.9 13zM36.1 12.1l-0.2 1.3c-0.3-0.3-0.5-0.6-0.9-0.6 -0.5 0-0.9 0.4-1.2 0.9 -0.4-0.1-0.8-0.2-0.8-0.2l0 0c0-0.3 0-0.5 0-0.6h-0.9c-0.1 1.1-0.3 2.3-0.5 3.4l0 0.2h1c0.1-0.8 0.2-1.5 0.3-2.1 0.3-0.3 0.5-0.6 0.8-0.5 -0.1 0.4-0.2 0.8-0.2 1.2 0 0.9 0.5 1.5 1.2 1.5 0.4 0 0.6-0.1 0.9-0.4l0 0.3h0.9l0.7-4.5H36.1zM34.9 15.8c-0.3 0-0.5-0.2-0.5-0.7 0-0.7 0.3-1.2 0.7-1.2 0.3 0 0.5 0.3 0.5 0.7C35.7 15.3 35.3 15.8 34.9 15.8z"/><polygon points="13.3 16.3 12.3 16.3 12.9 12.9 11.6 16.3 11 16.3 10.9 12.9 10.3 16.3 9.4 16.3 10.2 11.8 11.5 11.8 11.6 14.6 12.5 11.8 14 11.8" class="style4"/><path d="M15.6 14.7c-0.1 0-0.1 0-0.2 0 -0.5 0-0.8 0.2-0.8 0.6 0 0.2 0.1 0.4 0.3 0.4C15.3 15.6 15.6 15.3 15.6 14.7zM16.3 16.3c-0.1 0-0.8 0-0.8 0l0-0.4c-0.2 0.3-0.6 0.4-1 0.4 -0.5 0-0.9-0.4-0.9-1 0-0.9 0.6-1.4 1.7-1.4 0.1 0 0.2 0 0.4 0 0-0.1 0-0.2 0-0.2 0-0.2-0.2-0.3-0.6-0.3 -0.5 0-0.9 0.1-1 0.2 0-0.1 0.1-0.8 0.1-0.8 0.5-0.1 0.8-0.2 1.2-0.2 0.8 0 1.3 0.4 1.3 1.1 0 0.2 0 0.4-0.1 0.7C16.5 14.9 16.4 16.1 16.3 16.3zM29.2 12l-0.2 1c-0.3-0.2-0.6-0.2-0.9-0.2 -0.7 0-1.2 0.7-1.2 1.7 0 0.7 0.3 1.1 0.9 1.1 0.2 0 0.5-0.1 0.8-0.2l-0.2 1c-0.4 0.1-0.6 0.1-0.9 0.1 -1 0-1.7-0.7-1.7-1.9 0-1.6 0.9-2.7 2.2-2.7C28.6 11.7 29.1 11.9 29.2 12zM30.8 14.7c-0.1 0-0.1 0-0.2 0 -0.5 0-0.8 0.2-0.8 0.6 0 0.2 0.1 0.4 0.3 0.4C30.5 15.6 30.8 15.3 30.8 14.7zM31.5 16.3c-0.1 0-0.8 0-0.8 0l0-0.4c-0.2 0.3-0.6 0.4-1 0.4 -0.5 0-0.9-0.4-0.9-1 0-0.9 0.6-1.4 1.7-1.4 0.1 0 0.2 0 0.4 0 0-0.1 0-0.2 0-0.2 0-0.2-0.2-0.3-0.6-0.3 -0.5 0-0.9 0.1-1 0.2 0-0.1 0.1-0.8 0.1-0.8 0.5-0.1 0.8-0.2 1.2-0.2 0.8 0 1.3 0.4 1.3 1.1 0 0.2 0 0.4-0.1 0.7C31.7 14.9 31.5 16.1 31.5 16.3zM20.6 16.3c-0.3 0.1-0.5 0.1-0.7 0.1 -0.5 0-0.8-0.3-0.8-0.8 0-0.2 0.1-0.6 0.1-1 0.1-0.3 0.4-2.5 0.4-2.5h1l-0.1 0.6H21l-0.1 0.9h-0.5c-0.1 0.7-0.3 1.6-0.3 1.7 0 0.2 0.1 0.3 0.3 0.3 0.1 0 0.2 0 0.3 0L20.6 16.3zM23.5 16.3c-0.3 0.1-0.6 0.1-1 0.1 -1.1 0-1.6-0.6-1.6-1.6 0-1.3 0.7-2.2 1.7-2.2 0.8 0 1.3 0.5 1.3 1.3 0 0.3 0 0.5-0.1 0.9h-1.9c-0.1 0.5 0.3 0.8 0.8 0.8 0.3 0 0.7-0.1 1-0.2L23.5 16.3zM23 14.1c0-0.1 0.1-0.7-0.4-0.7 -0.3 0-0.5 0.2-0.6 0.7H23zM16.9 13.8c0 0.5 0.2 0.8 0.7 1 0.4 0.2 0.5 0.2 0.5 0.4 0 0.2-0.2 0.3-0.6 0.3 -0.3 0-0.6 0-0.9-0.1 0 0-0.1 0.8-0.1 0.8 0.2 0 0.4 0.1 1 0.1 1 0 1.5-0.4 1.5-1.2 0-0.5-0.2-0.8-0.7-1 -0.4-0.2-0.4-0.2-0.4-0.4 0-0.2 0.2-0.3 0.5-0.3 0.2 0 0.4 0 0.7 0.1l0.1-0.8c-0.2 0-0.6-0.1-0.8-0.1C17.3 12.6 16.9 13.2 16.9 13.8zM36.6 16.3h-0.9l0-0.3c-0.3 0.3-0.5 0.4-0.9 0.4 -0.7 0-1.2-0.6-1.2-1.5 0-1.2 0.7-2.2 1.6-2.2 0.4 0 0.7 0.2 0.9 0.5l0.2-1.3h0.9L36.6 16.3zM35.2 15.5c0.4 0 0.8-0.5 0.8-1.2 0-0.5-0.2-0.7-0.5-0.7 -0.4 0-0.7 0.5-0.7 1.2C34.7 15.3 34.8 15.5 35.2 15.5zM32.4 12.7c-0.1 1.1-0.3 2.3-0.5 3.4l0 0.2h1c0.3-2.2 0.4-2.7 1-2.6 0.1-0.5 0.2-0.9 0.4-1.1 -0.4-0.1-0.6 0.1-0.9 0.6 0-0.2 0.1-0.4 0.1-0.6H32.4zM24.4 12.7c-0.1 1.1-0.3 2.3-0.5 3.4l0 0.2h1c0.3-2.2 0.4-2.7 1-2.6 0.1-0.5 0.2-0.9 0.4-1.1 -0.4-0.1-0.6 0.1-0.9 0.6 0-0.2 0.1-0.4 0.1-0.6H24.4z" class="style4"/><path d="M37 16.1c0-0.2 0.1-0.3 0.3-0.3 0.2 0 0.3 0.1 0.3 0.3 0 0.2-0.1 0.3-0.3 0.3C37.1 16.3 37 16.2 37 16.1zM37.3 16.3c0.1 0 0.2-0.1 0.2-0.2 0-0.1-0.1-0.2-0.2-0.2 -0.1 0-0.2 0.1-0.2 0.2C37.1 16.2 37.2 16.3 37.3 16.3zM37.3 16.2L37.3 16.2l-0.1-0.3h0.1c0 0 0 0 0.1 0 0 0 0 0 0 0.1 0 0 0 0.1 0 0.1l0 0.1H37.3L37.3 16.2 37.3 16.2 37.3 16.2zM37.3 16L37.3 16C37.3 16 37.3 16 37.3 16 37.3 16 37.3 16 37.3 16 37.3 16 37.3 16 37.3 16 37.3 16 37.3 16 37.3 16L37.3 16 37.3 16z" class="style4"/></svg>