<svg xmlns="http://www.w3.org/2000/svg" xmlns:xlink="http://www.w3.org/1999/xlink" version="1.1" x="0px" y="0px" viewBox="0 0 47 28" enable-background="new 0 0 47 28" xml:space="preserve"><style>.style0{stroke:	#A2A2A2;stroke-miterlimit:	10;fill:	none;}.style1{fill:	none;}.style2{fill:	#004686;}.style3{fill:	#EF9B11;}</style><g display="none"><image display="inline" overflow="visible" width="47" height="28" xlink:href="visa_payment_type.html"></image></g><g><path d="M45.5 27.5h-44c-0.6 0-1-0.5-1-1v-25c0-0.6 0.4-1 1-1h44 c0.5 0 1 0.4 1 1v25C46.5 27 46 27.5 45.5 27.5z" class="style0"/><rect x="-27" y="-51" width="141.7" height="141.7" class="style1"/><g><polygon points="17.1,20 19.1,8 22.4,8 20.3,20" class="style2"/><path d="M32.1 8.3c-0.6-0.2-1.7-0.5-2.9-0.5c-3.2 0-5.5 1.6-5.5 3.9c0 1.7 1.6 2.7 2.8 3.2 c1.3 0.6 1.7 1 1.7 1.5c0 0.8-1 1.2-1.9 1.2c-1.3 0-2-0.2-3.1-0.6l-0.4-0.2l-0.5 2.7c0.8 0.3 2.2 0.6 3.6 0.6 c3.4 0 5.6-1.6 5.7-4.1c0-1.4-0.9-2.4-2.7-3.2c-1.1-0.6-1.8-0.9-1.8-1.5c0-0.5 0.6-1 1.9-1c1.1 0 1.8 0.2 2.4 0.5l0.3 0.1 L32.1 8.3L32.1 8.3z" class="style2"/><path d="M40.4 8.1h-2.5c-0.8 0-1.4 0.2-1.7 1L31.4 20h3.4c0 0 0.6-1.5 0.7-1.8c0.4 0 3.7 0 4.2 0 c0.1 0.4 0.4 1.8 0.4 1.8l3 0L40.4 8.1 M36.4 15.7c0.3-0.7 1.3-3.3 1.3-3.3c0 0 0.3-0.7 0.4-1.1l0.2 1c0 0 0.6 2.8 0.8 3.4 L36.4 15.7L36.4 15.7z" class="style2"/><path d="M14.4 8.1l-3.2 8.1l-0.3-1.7c-0.6-1.9-2.4-4-4.5-5l2.9 10.4l3.4 0l5.1-11.9L14.4 8.1L14.4 8.1 z" class="style2"/><path d="M8.2 8.1H3l0 0.2c4.1 1 6.8 3.4 7.9 6.2L9.7 9.1C9.5 8.3 8.9 8.1 8.2 8.1L8.2 8.1z" class="style3"/></g></g></svg>